<?xml version="1.0" standalone="no"?>
<!DOCTYPE svg PUBLIC "-//W3C//DTD SVG 1.1//EN" "http://www.w3.org/Graphics/SVG/1.1/DTD/svg11.dtd" >
<svg xmlns="http://www.w3.org/2000/svg">
<metadata>Generated by IcoMoon</metadata>
<defs>
<font id="icon-coaatm" horiz-adv-x="1024">
<font-face units-per-em="1024" ascent="960" descent="-64" />
<missing-glyph horiz-adv-x="1024" />
<glyph unicode="&#x20;" horiz-adv-x="512" d="" />
<glyph unicode="&#xe900;" glyph-name="aeropuerto" d="M104.239 374.931c-0.028-0.017-0.058-0.028-0.088-0.047-11.095-5.767-15.914-19.091-11.062-30.622 4.866-11.569 17.813-17.441 29.721-13.479l335.726 111.7-62.775-102.514c-4.56-7.447-3.596-17.022 2.358-23.411 5.954-6.387 15.438-8.023 23.191-3.992l65.834 34.209c1.89 0.981 3.607 2.268 5.081 3.81l195.029 203.725 240.692 125.589c91.157 49.14 80.596 86.914 75.19 97.318-4.191 8.067-13.561 18.884-34.383 24.604-21.119 5.803-49.652 5.34-87.211-1.416-12.539-2.254-19.46-2.064-26.789-1.863-25.764 0.705-43.241-1.022-130.014-46.112l-474.595-246.635-184.050 95.519c-6.94 3.601-15.198 3.598-22.138-0.011l-31.013-16.118c-6.384-3.317-10.944-9.321-12.426-16.361-1.482-7.042 0.27-14.377 4.772-19.984l127.744-159.112-28.792-14.798zM978.252 181.643h-898.493c-25.266 0-45.748-20.488-45.748-45.748s20.482-45.748 45.748-45.748h898.493c25.266 0 45.748 20.482 45.748 45.748-0.003 25.268-20.482 45.748-45.748 45.748z" />
<glyph unicode="&#xe901;" glyph-name="alerta" d="M1014.988 107.868l-449.26 745.058c-11.354 18.83-31.74 30.344-53.73 30.344s-42.376-11.512-53.73-30.344l-449.256-745.058c-11.684-19.378-12.030-43.548-0.902-63.25 11.128-19.704 32.002-31.888 54.63-31.888h898.518c22.628 0 43.502 12.186 54.63 31.888 11.128 19.704 10.784 43.872-0.9 63.25zM512.334 625.546c25.802 0 47.634-14.556 47.634-40.356 0-78.726-9.262-191.858-9.262-270.584 0-20.51-22.494-29.108-38.372-29.108-21.168 0-39.032 8.6-39.032 29.108 0 78.726-9.26 191.858-9.26 270.584 0 25.8 21.168 40.356 48.292 40.356zM512.996 137.964c-29.108 0-50.942 23.816-50.942 50.94 0 27.786 21.832 50.94 50.942 50.94 27.124 0 50.28-23.154 50.28-50.94 0-27.124-23.156-50.94-50.28-50.94z" />
<glyph unicode="&#xe902;" glyph-name="alhambra" d="M1023.887 718.49l-128.756 0.113-55.246-60.222v-81.144h-64.633l0.113 312.532h4.976v56.433l-46.934 0.057v-38.904h-39.752v38.904h-47.047v-38.904h-39.752v38.904h-46.934v-38.904h-39.752v38.904h-46.99v-38.904h-39.752v38.904h-46.934v-38.904l-39.865 0.057 0.057 38.847-46.99 0.057v-38.904h-39.865v38.904h-46.934v-56.49h4.92v-312.589h-33.645v81.201l-55.302 60.279h-128.813l-0.057-620.937h247.391l-227.6-148.095h122.989l226.186 195.707h286.012l226.073-195.707h123.045l-227.373 147.982h247.278v620.824h-0.113zM86.629 598.951h-45.576v55.755c0 0 1.244 23.863 22.675 23.863 21.488 0 22.845-23.863 22.845-23.863l0.057-55.755zM184.172 343.587c7.973 8.595 20.583 16.455 40.148 16.455 43.597 0 56.433-39.074 56.433-39.074v-121.179h-96.581v143.798zM405.042 199.789h-109.304v121.123c0 0 9.104 39.13 52.814 39.13s56.49-39.13 56.49-39.13v-121.123zM564.334 199.789h-135.485v155.616c0 0 11.309 48.46 65.481 48.46 54.285 0 70.005-48.46 70.005-48.46s0-155.616 0-155.616zM588.196 320.912c0 0 9.161 39.13 52.927 39.13 43.597 0 56.433-39.13 56.433-39.13v-121.123h-109.361v121.123zM821.733 199.789h-109.361v121.123c0 0 9.161 39.13 53.041 39.13 43.597 0 56.433-39.13 56.433-39.13v-121.123c0 0-0.113 0-0.113 0zM982.891 598.951h-45.52v55.755c0 0 1.301 23.863 22.732 23.863s22.732-23.863 22.732-23.863l0.057-55.755z" />
<glyph unicode="&#xe903;" glyph-name="aparejador" d="M432.6 403.4l-4.2 10-1.4 3.6 211.8 88.6c3.6 1.4 5.2 5.6 3.8 9.2l-17 40.6c-1.2 2.6-3.8 4.2-6.4 4.2-0.8 0-1.8-0.2-2.6-0.6l-212-88.6-13 31 96.4 149.8c6.8 10.6 18.4 16.8 30.8 16.8v0c7 0 14-2 19.8-5.8l7.2-4.6c-6.8 17.4-13 33.8-16.8 43.4h-37.4c-26.8 0-50.8-12-67-30.8-1-1.2-2.2-2.4-3-3.8l-0.2-0.2c-1.2-1.6-2.4-3.4-3.6-5l-95.8-135.2c-5.6-6.6-8.8-14.8-9-23.4 0-0.2 0-0.4 0-0.6 0-0.6 0-1.2 0-1.8 0-0.8 0-1.6 0.2-2.4 0 0 0-0.2 0-0.2 0.4-4.8 1.8-9.4 4-13.8l18-42.8-140.8-59c-3.6-1.4-5.2-5.6-3.8-9.2l17-40.6c1.4-3.6 5.6-5.2 9.2-3.8l141 59 11.6-27.4-45.4-19-58.8-91.4c-2-3.2-1.2-7.6 2-9.6l37-23.8c3.2-2 7.6-1.2 9.6 2l73.2 113.4c6.4-4.8 14.4-7.4 22.6-7.4 4.8 0 9.8 1 14.6 3 19.2 8 28.2 30.2 20 49.2l-11.6 27zM582.6 667.6l-13.8-25 6.8-4.4c17-11 22-33.6 11-50.6l-7.6-11.8 26 10.8c1.8 0.8 3.6 1.2 5.4 1.8l8.6 41c0.8 3.6 0.2 7.4-1.6 10.8l-15.2 27.6 13.4 24.6c2 3.6-0.6 8.2-4.8 8.2h-37c-4.2 0-6.8-4.4-4.8-8.2l13.6-24.8zM780.8 612.8c-0.2 48.6-40 88-88.4 88h-36.8c-5.4-14.2-31.8-82.2-43.2-112 2.2 0.4 4.4 0.6 6.6 0.6v0 0c14.8 0 28-8.8 33.8-22.4l17-40.6c7.8-18.6-1-40.2-19.6-48l-158.2-66.4 0.2-177.6h0.4v-250.2c0-24.8 20-44.8 44.8-44.8s44.8 20 44.8 44.8v388.8h19.8l-0.6-388.6c0-24.8 20-44.8 44.8-44.8s44.8 20 44.8 44.8c0 1.2-0.8 627.6-0.8 627.6 0 4.2 3.4 7.6 7.6 7.8s7.8-3.2 8-7.4c0 0 0 0 0 0 0.8-168 0.4-106.4 2-270 0.2-20.6 16.8-37 37.4-37 0.2 0 0.2 0 0.4 0 20.6 0.2 37.2 17 37 37.8-1.4 163.4-0.8 101.8-1.8 269.6zM681.2 852c0 0 0 0 0 0 0.2 36.6-21.2 68-52 82.6-4.2 2-9.2 0-10.8-4.4l-10-37.4 1.4 50.2c0.2 5-3 8.2-7.6 9-3.8 0.8-4.8 1-11 1-5.2 0-7.8-0.2-12-1-4.2-0.6-7.8-4-7.6-9l1.4-50.2-10 37.4c-1.6 4.4-6.6 6.4-10.8 4.4-31-14.6-52.4-46-52-82.6 0 0 0 0 0 0h-11.4v-16h204v16h-11.6zM515 823.2c-2.2-7.4-3.4-15.2-3.4-23.2 0-43.4 35.2-78.6 78.6-78.6s78.6 35.2 78.6 78.6c0 8-1.2 16-3.4 23.2h-150.4zM509.8 546.8l20.8 8.6 31 48.2c2 3.2 1.2 7.6-2 9.6l-37 23.8c-3.2 2-7.6 1.2-9.6-2l-77-119.2 73.8 31z" />
<glyph unicode="&#xe904;" glyph-name="apartmentos" d="M205.545 755.392l258.101-78.377 12.891 42.449-276.506 83.964-122.888-70.914 22.173-38.423zM205.545 677.106l258.101-78.377 12.891 42.449-276.506 83.964-122.888-70.914 22.173-38.423zM205.545 598.82l258.101-78.377 12.891 42.449-276.506 83.964-122.888-70.914 22.173-38.423zM205.545 520.534l258.101-78.377 12.891 42.449-276.506 83.964-122.888-70.914 22.173-38.423zM205.545 442.249l258.101-78.377 12.891 42.449-276.506 83.964-122.888-70.911 22.171-38.423zM205.545 363.963l258.101-78.377 12.891 42.449-276.506 83.964-122.888-70.911 22.171-38.423zM205.545 285.677l258.101-78.377 12.891 42.449-276.506 83.964-122.888-70.911 22.171-38.423zM205.545 207.391l258.101-78.377 12.891 42.449-276.506 83.964-122.888-70.911 22.171-38.423zM627.156 755.392l258.101-78.377 12.888 42.449-276.506 83.964-122.885-70.914 22.171-38.423zM627.156 833.678l258.101-78.377 12.888 42.449-276.506 83.964-122.885-70.914 22.171-38.423zM627.156 911.964l258.101-78.377 12.888 42.449-276.506 83.964-122.885-70.914 22.171-38.423zM627.156 677.106l258.101-78.377 12.888 42.449-276.506 83.964-122.885-70.914 22.171-38.423zM627.156 598.82l258.101-78.377 12.888 42.449-276.506 83.964-122.885-70.914 22.171-38.423zM627.156 520.534l258.101-78.377 12.888 42.449-276.506 83.964-122.885-70.914 22.171-38.423zM627.156 442.249l258.101-78.377 12.888 42.449-276.506 83.964-122.885-70.911 22.171-38.423zM627.156 363.963l258.101-78.377 12.888 42.449-276.506 83.964-122.885-70.911 22.171-38.423zM627.156 285.677l258.101-78.377 12.888 42.449-276.506 83.964-122.885-70.911 22.171-38.423zM627.156 207.391l258.101-78.377 12.888 42.449-276.506 83.964-122.885-70.911 22.171-38.423zM885.734-21.572v73.878l12.411 40.87-276.506 83.964-122.888-70.911 12.411-21.505v-106.297h-47.037v73.878l12.411 40.87-276.506 83.964-122.888-70.911 12.408-21.505v-106.297h-65.533v-42.428h975.964v42.428h-114.248zM263.789-21.572v90.196l135.489-32.517v-57.678h-135.489zM685.403-21.572v90.196l135.487-32.517v-57.678h-135.487z" />
<glyph unicode="&#xe905;" glyph-name="aprendizaje-en-linea" d="M606.515 88.474v62.566h-189.030v-62.976c-34.781 0-62.976-28.195-62.976-62.976h314.982c0.001 0.122 0.001 0.266 0.001 0.41 0 34.781-28.195 62.976-62.976 62.976 0 0-0.001 0-0.001 0v0zM890.061 870.502h-756.122c-34.781 0-62.976-28.195-62.976-62.976v0-567.091c0-34.781 28.195-62.976 62.976-62.976v0h756.122c34.781 0 62.976 28.195 62.976 62.976v0 567.091c0 34.781-28.195 62.976-62.976 62.976v0zM543.539 240.435c0-0.030 0-0.066 0-0.102 0-17.419-14.121-31.539-31.539-31.539s-31.539 14.121-31.539 31.539c0 17.419 14.12 31.539 31.539 31.539v0c0.030 0 0.066 0 0.102 0 17.362 0 31.437-14.075 31.437-31.437 0 0 0 0 0 0v0zM890.163 303.411h-756.224v504.115h756.122v-504.115zM685.261 626.176c-2.876 3.63-7.284 5.938-12.231 5.938-3.674 0-7.051-1.273-9.714-3.402l0.031 0.024-69.427-55.091c6.902-4.554 12.591-10.374 16.861-17.174l0.137-0.234c1.107-1.733 2.233-3.781 3.233-5.9l0.147-0.346 68.813 54.272c3.485 2.876 5.69 7.196 5.69 12.031 0 3.765-1.336 7.217-3.561 9.909l0.021-0.026zM406.323 711.066c0-32.236-26.132-58.368-58.368-58.368s-58.368 26.132-58.368 58.368c0 32.236 26.132 58.368 58.368 58.368s58.368-26.132 58.368-58.368zM586.547 541.389c-5.055 8.024-13.867 13.278-23.906 13.278-5.522 0-10.672-1.589-15.019-4.335l0.116 0.068-57.037-35.43c0 47.309 0 22.221 0 52.634-0.289 36.638-30 66.24-66.651 66.355h-27.966c-23.654-61.44-16.077-38.605-36.147-90.726l8.704 36.864c0.155 0.717 0.244 1.542 0.244 2.386 0 2.093-0.546 4.059-1.504 5.762l0.031-0.059-11.469 20.48 10.24 18.432c0.345 0.588 0.549 1.294 0.549 2.048 0 2.262-1.834 4.096-4.096 4.096-0.013 0-0.026 0-0.039 0h-28.26c-0.011 0-0.024 0-0.037 0-2.262 0-4.096-1.834-4.096-4.096 0-0.754 0.204-1.461 0.559-2.067l-0.010 0.019 10.24-18.534-11.469-20.48c-0.918-1.637-1.458-3.593-1.458-5.676 0-0.818 0.083-1.617 0.242-2.388l-0.013 0.076 7.373-36.864-35.021 90.726h-28.467c-36.663-0.115-66.373-29.717-66.662-66.328v-0.028l-0.717-206.848c0-0.061-0.001-0.133-0.001-0.205 0-15.517 12.55-28.102 28.053-28.16h0.006c0 0 0 0 0 0 15.516 0 28.102 12.549 28.16 28.052v0.006l1.024 207.053c0.386 2.767 2.738 4.874 5.581 4.874s5.194-2.107 5.577-4.845l0.003-0.030v-242.381h67.584v38.912h14.541v-38.912h67.584c0 250.88-0.614 51.2-0.614 241.869 0.398 2.928 2.882 5.161 5.888 5.161s5.49-2.233 5.885-5.13l0.003-0.031c0-19.763 0-81.92 0.512-103.014 0.097-15.479 12.667-27.99 28.159-27.99 5.499 0 10.63 1.576 14.966 4.302l-0.117-0.069 99.84 61.952c8.171 5.026 13.538 13.919 13.538 24.066 0 5.626-1.65 10.866-4.491 15.263l0.067-0.11z" />
<glyph unicode="&#xe906;" glyph-name="aqueducto" d="M0 842.666v-106.666c35.346 0 64-28.654 64-64v-42.666h128v42.666c0 35.346 28.654 64 64 64s64-28.654 64-64v-42.666h128v42.666c0 35.346 28.656 64 64 64 35.346 0 64-28.654 64-64v-42.666h128v42.666c0 35.346 28.656 64 64 64 35.346 0 64-28.654 64-64v-42.666h128v42.666c0 35.346 28.656 64 64 64v106.666h-1024zM0 117.334h1024v-64h-1024v64zM0 565.334v-106.666c35.346 0 64-28.654 64-64v-213.334h128v213.332c0 35.346 28.654 64 64 64s64-28.654 64-64v-213.334h128v213.334c0 35.346 28.656 64 64 64 35.346 0 64-28.654 64-64v-213.334h128v213.334c0 35.346 28.656 64 64 64 35.346 0 64-28.654 64-64v-213.334h128v213.334c0 35.346 28.656 64 64 64v106.666h-1024z" />
<glyph unicode="&#xe907;" glyph-name="arquiterctura_cotas" d="M648.153 467.767c0 5.366-4.358 9.722-9.722 9.722h-136.114v252.783h79.353l-290.815 199.31-290.855-199.312h74.532v-272.227h272.225v194.448h97.223v-194.448h39.27v-97.223c0-5.368 4.358-9.722 9.722-9.722 5.368 0 9.722 4.356 9.722 9.722v97.223h135.732c5.37 0 9.728 4.358 9.728 9.724zM288.425 555.268h-116.669v97.223h116.669v-97.223zM300.87 927.733l2.548-2.198c1.090-0.447 3.188-0.817 4.451-0.817h330.56c5.366 0 9.722 4.356 9.722 9.722s-4.358 9.722-9.722 9.722h-330.56c-5.366 0-9.72-4.356-9.72-9.722 0-0.214 0.098-0.388 0.116-0.602 0.155-2.351 1.070-4.492 2.605-6.104zM658.379 846.939l-29.67 51.416-29.674-51.416h19.95v-291.671h-19.95l29.674-51.393 29.67 51.393h-19.948v291.671zM424.538 380.264h-252.781v19.952l-51.411-29.672 51.411-29.674v19.95h252.781v-19.95l51.414 29.674-51.414 29.672zM598.277 78.737l11.493-126.899 103.718 68.098 246.969 483.861-115.211 58.801zM989.72 663.459l-5.757 2.936c-27.047 13.805-66.557 18.958-80.111-7.583l-27.417-53.707 115.211-58.801 27.415 53.707c13.553 26.542-2.294 49.64-29.341 63.447z" />
<glyph unicode="&#xe908;" glyph-name="atencion_cliente01" d="M607.094 206.35c-25.965 25.752-58.528 25.752-84.494 0-19.793-19.58-39.586-39.161-58.954-59.167-5.321-5.534-9.79-6.598-16.388-2.98-12.77 7.023-26.391 12.557-38.735 20.219-57.251 35.968-105.351 82.365-147.917 134.721-21.070 25.965-40.012 53.633-52.995 84.919-2.554 6.385-2.341 10.429 2.98 15.537 19.793 19.155 39.161 38.735 58.528 58.315 27.029 27.242 27.029 59.167-0.213 86.622-15.324 15.537-30.86 31.073-46.397 46.397-15.962 15.962-31.712 31.925-47.887 47.887-26.178 25.54-58.528 25.752-84.706 0-19.793-19.58-39.161-39.799-59.167-58.954-18.729-17.878-28.306-39.586-30.222-65.126-2.98-41.289 7.023-80.45 21.283-118.546 29.371-78.747 73.852-148.555 127.698-212.83 72.788-86.835 160.048-155.366 261.994-204.955 45.758-22.347 93.432-39.374 145.15-42.14 35.543-1.915 66.616 7.023 91.304 34.691 17.026 18.942 35.968 36.181 54.059 54.272 26.604 26.817 26.817 59.38 0.426 85.983-31.925 31.925-63.636 63.423-95.348 95.135zM929.531 865.484c-125.995 125.995-330.099 125.995-456.095 0-121.313-121.313-125.783-314.989-13.621-441.622l3.192-2.767c-12.131-26.391-33.201-58.741-66.403-75.129-11.067-5.321-8.513-21.709 3.618-23.624 36.394-5.746 88.537 0.638 137.063 37.458l0.638-0.638c123.654-72.788 285.192-55.974 391.395 50.228 126.208 125.995 126.208 330.099 0.213 456.095zM715.211 836.539c28.945-0.213 52.143-23.837 51.931-53.208-0.213-29.158-23.837-52.782-52.143-52.569-29.371 0.213-52.995 24.263-52.782 53.42s23.837 52.569 52.995 52.356zM789.915 482.177c-1.064-4.469-4.044-9.152-7.236-12.557-19.155-19.368-41.928-30.86-69.383-31.286-12.77-0.213-25.752 0.213-38.309 2.128-21.070 2.98-47.674 28.945-43.843 56.826 2.554 18.942 5.534 37.884 8.726 56.826 5.534 32.776 11.493 65.764 17.239 98.54 0.426 2.128 0.426 4.257 0.426 6.385 0 13.834-4.257 18.516-17.878 20.432-5.746 0.851-11.918 1.277-17.239 3.192-6.811 2.341-9.79 7.662-9.152 13.195 0.638 5.746 4.257 9.365 11.706 10.854 3.831 0.851 7.875 0.851 11.918 0.851 16.175 0 32.137 0 48.312 0 17.026 0 34.053 0 51.292 0 12.344 0 19.58-5.746 20.006-18.091 0.213-10.216-1.49-20.432-3.405-30.648-6.598-37.458-13.621-74.916-20.432-112.587-2.341-12.344-4.895-24.901-6.172-37.245-0.638-5.959 0.213-12.344 1.703-18.091 1.915-7.875 7.875-12.131 15.749-11.28 6.598 0.851 13.195 3.192 19.58 5.534 5.108 1.915 9.577 5.534 14.898 7.449 7.023 2.767 13.408-2.554 11.493-10.429z" />
<glyph unicode="&#xe909;" glyph-name="balanza-ley" d="M748.308-23.355v-39.385h-472.615v39.385c0 21.701 17.684 39.385 39.385 39.385h79.281c2.087 49.152 33.989 90.191 78.257 105.905v461.785c-20.756 13.115-34.658 36.116-34.658 62.503h148.086c0-26.388-13.903-49.388-34.658-62.503v-461.745c44.268-15.714 76.17-56.753 78.257-105.905h79.281c21.701-0.039 39.385-17.723 39.385-39.424zM1024 331.146c-28.869-81.29-105.748-139.934-196.923-139.934s-168.054 58.683-196.923 139.934h45.45l133.041 352.61c5.75 15.36 31.074 15.36 36.864 0l133.041-352.61h45.45zM936.448 331.146l-109.371 289.831-109.371-289.871h218.742zM196.923 724.559c17.841 0 32.374 11.934 37.415 28.121 13.036 4.962 26.388 11.658 40.094 18.59 30.129 15.202 64.276 32.492 99.722 32.492 34.028 0 55.296-15.714 67.466-29.105-0.473-3.387-1.024-6.774-1.024-10.279 0-39.424 31.98-71.404 71.404-71.404s71.404 31.98 71.404 71.404c0 3.505-0.551 6.853-1.024 10.24 12.13 13.351 33.398 29.145 67.466 29.145 35.446 0 69.593-17.25 99.682-32.453 13.745-6.932 27.097-13.627 40.133-18.59 5.041-16.187 19.574-28.121 37.415-28.121 21.977 0 39.778 17.802 39.778 39.778s-17.802 39.778-39.778 39.778c-11.343 0-21.465-4.884-28.711-12.524-9.728 4.096-20.244 9.334-31.074 14.809-34.028 17.211-72.586 36.706-117.445 36.706-39.227 0-66.56-14.927-85.11-30.996-8.31 9.177-18.944 16.030-31.035 19.929 14.69 7.877 25.009 22.882 25.009 40.645 0 25.797-46.71 86.016-46.71 86.016s-46.71-60.219-46.71-86.016c0-17.802 10.319-32.768 25.009-40.645-12.091-3.86-22.725-10.752-31.035-19.929-18.55 16.069-45.883 30.996-85.11 30.996-44.859 0-83.456-19.495-117.484-36.706-10.831-5.514-21.307-10.752-31.035-14.809-7.247 7.601-17.369 12.524-28.711 12.524-21.977 0-39.778-17.802-39.778-39.778s17.802-39.818 39.778-39.818zM196.923 191.173c-91.175 0-168.054 58.683-196.923 139.934h45.45l133.041 352.61c5.75 15.36 31.074 15.36 36.864 0l133.041-352.61h45.45c-28.869-81.25-105.748-139.934-196.923-139.934zM306.294 331.146l-109.371 289.831-109.371-289.871h218.742z" />
<glyph unicode="&#xe90a;" glyph-name="bandera" d="M144.618 909.071c0 28.126-22.803 50.929-50.929 50.929s-50.929-22.803-50.929-50.929v-922.142c0-28.126 22.803-50.929 50.929-50.929s50.929 22.803 50.929 50.929v403.080c0.003-0.003 0.010-0.003 0.014-0.007l-0.014 519.069zM821.262 681.184c-8.868 11.921-8.767 27.943 0.248 38.777 48.142 57.509 97.668 104.673 144.425 142.306 41.212 33.168-12.522 57.356-24.575 62.429-245.325 103.291-490.43-112.855-735.613-47.048v-510.204c245.549-65.851 491.102 151.229 736.648 46.597 11.985-5.076 22.928-3.826 28.201 4.118 5.273 7.914 3.962 21.509-3.378 34.829-48.651 87.931-97.305 162.426-145.956 228.196z" />
<glyph unicode="&#xe90b;" glyph-name="birrete" d="M771.167 473l7.5-131.667c1.11-19.166-10.278-36.944-34.167-53.333s-56.528-29.375-97.917-38.958c-41.389-9.583-86.25-14.375-134.583-14.375s-93.194 4.791-134.583 14.375c-41.389 9.583-74.028 22.569-97.917 38.958s-35.278 34.167-34.167 53.333l7.5 131.667 239.167-75.417c6.111-1.944 12.778-2.917 20-2.917s13.889 0.972 20 2.917l239.167 75.417zM992 608c0-6.389-3.056-10.694-9.167-12.917l-466.666-146.667c-1.111-0.278-2.5-0.417-4.167-0.417s-3.056 0.139-4.167 0.417l-271.666 85.833c-11.945-9.445-21.806-24.93-29.583-46.458s-12.5-46.319-14.167-74.375c17.5-10 26.25-25.139 26.25-45.417 0-19.167-8.056-34.028-24.167-44.583l24.167-180.417c0.555-3.889-0.556-7.361-3.333-10.417-2.5-3.055-5.833-4.583-10-4.583h-80c-4.167 0-7.5 1.528-10 4.583-2.778 3.056-3.889 6.528-3.333 10.417l24.167 180.417c-16.112 10.555-24.167 25.417-24.167 44.583 0 20.278 9.027 35.695 27.083 46.25 3.055 57.5 16.667 103.333 40.833 137.5l-138.75 43.333c-6.111 2.222-9.167 6.528-9.167 12.917s3.055 10.694 9.167 12.917l466.667 146.667c1.111 0.278 2.5 0.417 4.167 0.417s3.055-0.139 4.167-0.417l466.666-146.667c6.111-2.222 9.166-6.528 9.166-12.917z" />
<glyph unicode="&#xe90c;" glyph-name="botiquin" d="M896 704h-192v128c0 35.2-28.8 64-64 64h-256c-35.2 0-64-28.8-64-64v-128h-192c-70.4 0-128-57.6-128-128v-512c0-70.4 57.6-128 128-128h768c70.4 0 128 57.6 128 128v512c0 70.4-57.6 128-128 128zM384 832h256v-128h-256v128zM768 256h-192v-192h-128v192h-192v128h192v192h128v-192h192v-128z" />
<glyph unicode="&#xe90d;" glyph-name="businessman01" d="M329.699 525.839c9.329-60.638 56.185-137.813 133.148-164.951 31.591-11.025 66.15-11.237 97.741 0.212 75.691 27.351 124.032 104.314 133.572 164.739 10.177 0.848 23.534 15.053 37.952 66.15 19.718 69.754-1.272 80.143-19.082 78.447 3.392 9.541 5.937 19.294 7.633 28.623 30.107 180.853-58.941 187.001-58.941 187.001s-14.841 28.411-53.641 49.825c-26.078 15.477-62.334 27.351-110.038 23.322-15.477-0.636-30.107-3.816-43.888-8.269v0c-17.598-5.937-33.711-14.629-48.34-24.806-17.81-11.237-34.771-25.23-49.613-41.132-23.534-24.17-44.524-55.337-53.641-94.137-7.633-29.047-5.937-59.366 0.424-92.017v0c1.696-9.541 4.24-19.082 7.633-28.623-17.81 1.696-38.8-8.693-19.082-78.447 14.629-50.885 27.987-65.090 38.164-65.938zM861.657 288.589c-108.342 27.563-196.33 89.472-196.33 89.472l-81.628-258.24-0.212 0.636-11.237-34.771-36.255 102.83c89.048 124.244-18.022 122.971-23.958 122.759-5.937 0.212-113.006 1.484-23.958-122.759l-36.255-102.83-11.237 34.771-0.212-0.636-12.933 40.92-68.906 217.32c0 0-87.988-61.91-196.33-89.472-80.78-20.566-84.596-113.855-81.416-159.863 0 0 4.664-62.546 9.329-90.108 0 0 157.743-102.406 421.919-102.618 264.177 0 421.919 102.618 421.919 102.618 4.664 27.563 9.329 90.108 9.329 90.108 2.968 46.008-0.848 139.297-81.628 159.863z" />
<glyph unicode="&#xe90e;" glyph-name="businessman02" d="M732.414 413.171v0c0.418 0 0.627 0 0.836 0 0.418 0 0.627 0 0.836 0v0c157.394 1.672 134.401 211.74 134.401 211.74-6.48 140.463-123.95 139.209-135.446 138.791-11.496 0.418-128.967 1.672-135.446-138.791 0.209 0-22.574-210.067 134.819-211.74zM949.17 346.284c-71.068 27.173-113.708 54.973-113.708 54.973l-54.764-173.488-7.525-23.62-24.665 69.604c56.436 78.801-4.18 82.564-14.841 82.564v0h-0.836c-10.451 0-71.277-3.762-14.841-82.564l-24.665-69.604-7.525 23.62-54.764 173.488c0 0-21.947-14.423-60.825-32.607 23.62-18.185 39.714-42.432 49.12-73.367 11.496-38.042 11.914-82.773 12.541-139.418 0-7.316 0.209-15.050 0.209-22.992 0-0.209 0-0.418 0-0.627h391.917c-1.463 121.024 3.553 185.612-74.83 214.039zM289.914 413.171v0c0.418 0 0.627 0 0.836 0 0.418 0 0.627 0 0.836 0v0c157.394 1.672 134.401 211.74 134.401 211.74-6.48 140.463-123.95 139.209-135.446 138.791-11.496 0.418-128.967 1.672-135.446-138.791 0.418 0-22.365-210.067 134.819-211.74zM506.67 346.284c-71.068 27.173-113.708 54.973-113.708 54.973l-54.764-173.488-7.525-23.62-24.665 69.604c56.436 78.801-4.18 82.564-14.841 82.564v0h-0.836c-10.451 0-71.277-3.762-14.841-82.564l-24.665-69.604-7.525 23.62-54.764 173.488c0 0-42.641-27.8-113.708-54.973-78.174-28.427-73.158-93.015-74.83-213.83h581.709c-1.463 120.815 3.344 185.403-75.039 213.83z" />
<glyph unicode="&#xe90f;" glyph-name="businesswoman" d="M630.554 309.709v0 43.015c0 0 135.551-4.197 199.969 61.48 0 0-93.585 26.439-76.798 197.031 16.786 170.383-20.983 319.992-158.003 307.402 0 0-59.382 71.552-177.517 26.439-40.497-15.527-149.4-54.346-143.944-290.616 5.456-236.060-83.932-237.529-83.932-237.529s46.163-67.146 202.697-65.677v-44.064l118.974-347.48 118.764 346.85-0.21 3.147zM950.127-45.325l-23.921 132.193c-7.764 42.806-35.461 79.526-74.49 98.83l-149.819 73.86c-8.603 4.197-16.996 9.023-25.39 13.639l47.212-139.328-66.097 5.036-145.623-179.196-145.623 179.196-66.097-5.036 48.261 139.328-30.006-15.318-146.252-72.182c-39.029-19.304-66.726-56.025-74.49-98.83l-23.921-132.193c-1.679-9.652 5.665-18.675 15.527-18.675h844.779c10.282 0 17.626 9.023 15.947 18.675z" />
<glyph unicode="&#xe910;" glyph-name="caballo_ajedrez" d="M899.229 599.436l-5.324 22.724c-5.223 22.35-20.85 41.293-41.801 50.676l-302.844 135.673 42.41 119.519c3.383 9.527 0.417 20.155-7.409 26.558-7.825 6.397-18.823 7.198-27.497 1.998l-147.241-88.337c-73.088-43.852-129.639-107.994-163.534-185.491-32.739-74.842-49.77-151.007-50.628-226.382-1.481-130.353 27.377-225.409 49.19-278.351h-42.683c-13.231 0-23.96-10.729-23.96-23.96v-73.088h-31.129c-13.231 0-23.96-10.729-23.96-23.96v-97.049c0-13.231 10.729-23.96 23.96-23.96h672.924c13.236 0 23.96 10.729 23.96 23.96v97.049c0 13.231-10.725 23.96-23.96 23.96h-31.129v73.088c0 13.231-10.725 23.96-23.96 23.96h-72.954l2.846 8.63c13.111 39.784 8.822 83.516-11.769 119.988l-100.83 178.6 13.514-4.461c5.813-1.917 11.856-2.89 17.961-2.89 16.71 0 32.548 7.26 43.454 19.916 8.904 10.336 21.847 16.269 35.495 16.269 5.166 0 10.279-0.853 15.181-2.535l72.149-24.741c7.744-2.66 15.823-4.001 23.999-4.001 20.764 0 40.699 8.793 54.692 24.138l23.481 25.753c16.456 18.028 22.954 42.98 17.395 66.749z" />
<glyph unicode="&#xe911;" glyph-name="calculadora" d="M807.238 960h-590.476c-33.138 0-60-26.862-60-60v-904c0-33.138 26.862-60 60-60h590.476c33.138 0 60 26.862 60 60v904c0 33.138-26.862 60-60 60zM258.796 820.072c0 5.522 4.478 10 10 10h486.408c5.522 0 10-4.478 10-10v-107.918c0-5.524-4.478-10.002-10-10.002h-486.408c-5.522 0-10 4.478-10 10v107.92zM368.36 54.344c0-5.522-4.478-10-10-10h-89.564c-5.522 0-10 4.478-10 10v89.564c0 5.522 4.478 10 10 10h89.564c5.522 0 10-4.478 10-10v-89.564zM368.36 249.21c0-5.522-4.478-10-10-10h-89.564c-5.522 0-10 4.478-10 10v89.564c0 5.522 4.478 10 10 10h89.564c5.522 0 10-4.478 10-10v-89.564zM368.36 444.076c0-5.524-4.478-10-10-10h-89.564c-5.522 0-10 4.478-10 10v89.564c0 5.522 4.478 10 10 10h89.564c5.522 0 10-4.478 10-10v-89.564zM566.782 54.344c0-5.522-4.478-10-10-10h-89.564c-5.522 0-10 4.478-10 10v89.564c0 5.522 4.478 10 10 10h89.564c5.522 0 10-4.478 10-10v-89.564zM566.782 249.21c0-5.522-4.478-10-10-10h-89.564c-5.522 0-10 4.478-10 10v89.564c0 5.522 4.478 10 10 10h89.564c5.522 0 10-4.478 10-10v-89.564zM566.782 444.076c0-5.524-4.478-10-10-10h-89.564c-5.522 0-10 4.478-10 10v89.564c0 5.522 4.478 10 10 10h89.564c5.522 0 10-4.478 10-10v-89.564zM765.204 54.344c0-5.522-4.478-10-10-10h-89.564c-5.522 0-10 4.478-10 10v89.564c0 5.522 4.478 10 10 10h89.564c5.522 0 10-4.478 10-10v-89.564zM765.204 249.21c0-5.522-4.478-10-10-10h-89.564c-5.522 0-10 4.478-10 10v89.564c0 5.522 4.478 10 10 10h89.564c5.522 0 10-4.478 10-10v-89.564zM765.204 444.076c0-5.524-4.478-10-10-10h-89.564c-5.522 0-10 4.478-10 10v89.564c0 5.522 4.478 10 10 10h89.564c5.522 0 10-4.478 10-10v-89.564z" />
<glyph unicode="&#xe912;" glyph-name="calculadora02" d="M554.666 405.334v-469.334h298.666c94.258 0 170.668 76.41 170.668 170.666v298.668h-469.334zM881.778 64h-227.556v85.334h227.556v-85.334zM881.778 234.666h-227.556v85.334h227.556v-85.334zM170.666 960c-94.256 0-170.666-76.41-170.666-170.666v-298.666h469.334v469.332h-298.668zM376.682 654.432h-78.014v-78.012h-85.334v78.012h-78.012v85.334h78.012v78.012h85.334v-78.012h78.014v-85.334zM0 405.334v-298.666c0-94.258 76.41-170.668 170.666-170.668h298.666v469.334h-469.332zM371.502 136.834l-60.34-60.34-55.162 55.166-55.166-55.166-60.34 60.34 55.166 55.166-55.162 55.166 60.34 60.34 55.162-55.166 55.166 55.162 60.34-60.34-55.166-55.162 55.162-55.166zM853.334 960h-298.668v-469.334h469.334v298.668c0 94.256-76.41 170.666-170.666 170.666zM881.778 661.334h-227.556v85.334h227.556v-85.334z" />
<glyph unicode="&#xe913;" glyph-name="calendar_reloj" d="M128.001 799.997v128.003c0 17.69 14.311 32 32.004 32 17.685 0 31.996-14.311 31.996-32v-128.003c0-17.685-14.311-31.996-31.996-31.996-17.694-0.002-32.004 14.311-32.004 31.996zM672.008 767.998c17.681 0 32 14.311 32 31.996v128.005c0 17.69-14.319 32-32 32-17.69 0-32.011-14.311-32.011-32v-128.003c0-17.685 14.321-31.998 32.011-31.998zM1024 192.006c0-141.39-114.621-256.008-256-256.008-141.368 0-255.998 114.619-255.998 256.008 0 141.368 114.627 255.994 255.998 255.994 141.379 0 256-114.623 256-255.994zM960.008 192.006c0 105.861-86.126 191.997-192.006 191.997-105.871 0-191.997-86.135-191.997-191.997 0-105.882 86.126-192.006 191.997-192.006 105.88 0 192.006 86.124 192.006 192.006zM256.004 575.999h-128.003v-127.999h128.003v127.999zM128.001 255.998h128.003v128.005h-128.003v-128.005zM320.001 448h128.005v127.999h-128.005v-127.999zM320.001 255.998h128.005v128.005h-128.005v-128.005zM64.005 198.369v441.632h703.997v-128.003h64.003v249.622c0 38.876-31.006 70.38-69.312 70.38h-26.69v-32.007c0-35.246-28.693-63.998-63.992-63.998-35.309 0-64.001 28.752-64.001 63.998v32.007h-384.010v-32.007c0-35.246-28.687-63.998-63.992-63.998-35.314 0-64.003 28.752-64.003 63.998v32.007h-26.659c-38.308 0-69.344-31.504-69.344-70.38v-563.254c0-38.747 31.036-70.374 69.344-70.374h378.66v64.011h-378.66c-2.9 0.002-5.341 2.997-5.341 6.365zM639.997 448v127.999h-127.993v-127.999h127.993zM864.003 192.006h-96.003v96.003c0 17.679-14.311 31.99-32 31.99s-31.992-14.311-31.992-31.99v-128.014c0-17.681 14.302-32 31.992-32h128.003c17.69 0 32 14.319 32 32 0 17.69-14.311 32.011-32 32.011z" />
<glyph unicode="&#xe914;" glyph-name="calendar-check" d="M128 799.996v128.004c0 17.69 14.31 32 32.004 32 17.686 0 31.996-14.312 31.996-32v-128.002c0-17.688-14.31-31.998-31.996-31.998-17.692-0.002-32.004 14.31-32.004 31.996zM672.006 767.998c17.682 0 32 14.31 32 31.996v128.006c0 17.69-14.318 32-32 32-17.69 0-32.012-14.31-32.012-32v-128.002c0-17.688 14.322-32 32.012-32zM1023.996 192.006c0-141.388-114.62-256.008-255.998-256.008-141.37 0-255.998 114.62-255.998 256.008 0 141.368 114.628 255.994 255.998 255.994 141.38 0 255.998-114.624 255.998-255.994zM960.006 192.006c0 105.862-86.126 191.998-192.006 191.998-105.872 0-191.996-86.134-191.996-191.998 0-105.88 86.126-192.004 191.996-192.004 105.88 0 192.006 86.122 192.006 192.004zM256.004 576h-128.004v-128h128.004v128zM128 255.998h128.004v128.006h-128.004v-128.006zM320 448h128.004v128h-128.004v-128zM320 255.998h128.004v128.006h-128.004v-128.006zM64.004 198.37v441.63h703.996v-128.002h64.002v249.622c0 38.876-31.006 70.38-69.312 70.38h-26.69v-32.006c0-35.246-28.694-64-63.992-64-35.308 0-64 28.752-64 64v32.006h-384.010v-32.006c0-35.246-28.686-64-63.992-64-35.312 0-64.002 28.752-64.002 64v32.006h-26.658c-38.308 0-69.344-31.504-69.344-70.38v-563.252c0-38.746 31.036-70.374 69.344-70.374h378.658v64.010h-378.658c-2.9 0.002-5.342 2.998-5.342 6.366zM639.994 448v128h-127.992v-128h127.992zM903.744 254.364c-12.5 12.51-32.752 12.51-45.242 0l-113.122-113.124-67.892 67.884c-12.5 12.5-32.75 12.5-45.246 0-12.498-12.5-12.5-32.752 0-45.248l90.506-90.508c6.244-6.244 14.44-9.366 22.634-9.366 8.176 0 16.362 3.122 22.616 9.366l135.746 135.756c12.498 12.5 12.498 32.74 0 45.24z" />
<glyph unicode="&#xe915;" glyph-name="calendario" d="M751.744 752c-22.848 0-41.28 18.432-41.28 41.28v97.28c0 22.784 18.368 41.28 41.28 41.28 22.72 0 41.28-18.432 41.28-41.28v-97.344c0-22.784-18.496-41.216-41.28-41.216zM291.584 446.976c0-7.296-5.952-13.248-13.248-13.248h-117.632c-7.296 0-13.248 5.952-13.248 13.248v89.984c0 7.296 5.952 13.312 13.248 13.312h117.632c7.296 0 13.248-5.952 13.248-13.312v-89.984zM487.68 446.976c0-7.296-5.888-13.248-13.184-13.248h-117.632c-7.296 0-13.248 5.952-13.248 13.248v89.984c0 7.296 5.888 13.312 13.248 13.312h117.632c7.296 0 13.184-5.952 13.184-13.312v-89.984zM683.904 446.976c0-7.296-5.888-13.248-13.248-13.248h-117.632c-7.232 0-13.248 5.952-13.248 13.248v89.984c0 7.296 6.016 13.312 13.248 13.312h117.632c7.36 0 13.248-5.952 13.248-13.312v-89.984zM880.064 446.976c0-7.296-5.952-13.248-13.248-13.248h-117.632c-7.36 0-13.248 5.952-13.248 13.248v89.984c0 7.296 5.888 13.312 13.248 13.312h117.632c7.296 0 13.248-5.952 13.248-13.312v-89.984zM291.584 293.376c0-7.232-5.952-13.184-13.248-13.184h-117.632c-7.296 0-13.248 5.952-13.248 13.184v89.984c0 7.36 5.952 13.312 13.248 13.312h117.632c7.296 0 13.248-5.952 13.248-13.312v-89.984zM487.68 293.376c0-7.232-5.888-13.184-13.184-13.184h-117.632c-7.296 0-13.248 5.952-13.248 13.184v89.984c0 7.36 5.888 13.312 13.248 13.312h117.632c7.296 0 13.184-5.952 13.184-13.312v-89.984zM683.904 293.376c0-7.232-5.888-13.184-13.248-13.184h-117.632c-7.232 0-13.248 5.952-13.248 13.184v89.984c0 7.36 6.016 13.312 13.248 13.312h117.632c7.36 0 13.248-5.952 13.248-13.312v-89.984zM880.064 293.376c0-7.232-5.952-13.184-13.248-13.184h-117.632c-7.36 0-13.248 5.952-13.248 13.184v89.984c0 7.36 5.888 13.312 13.248 13.312h117.632c7.296 0 13.248-5.952 13.248-13.312v-89.984zM291.584 139.904c0-7.296-5.952-13.248-13.248-13.248h-117.632c-7.296 0-13.248 5.952-13.248 13.248v90.048c0 7.232 5.952 13.248 13.248 13.248h117.632c7.296 0 13.248-6.016 13.248-13.248v-90.048zM487.68 139.904c0-7.296-5.888-13.248-13.184-13.248h-117.632c-7.296 0-13.248 5.952-13.248 13.248v90.048c0 7.232 5.888 13.248 13.248 13.248h117.632c7.296 0 13.184-6.016 13.184-13.248v-90.048zM941.184 845.888h-106.944v-52.608c0-45.568-36.992-82.496-82.496-82.496-45.632 0-82.496 36.928-82.496 82.496v52.608h-314.752v-52.608c0-45.568-36.928-82.496-82.56-82.496-45.504 0-82.496 36.928-82.496 82.496v52.608h-106.944c-45.568 0-82.496-36.928-82.496-82.496v-690.624c0-45.568 36.928-82.496 82.496-82.496h858.688c45.568 0 82.496 36.928 82.496 82.496v690.624c0 45.568-36.928 82.496-82.496 82.496zM941.184 72.768h-858.688v553.088h858.688v-553.088zM271.936 752c-22.72 0-41.28 18.432-41.28 41.28v97.28c0 22.784 18.56 41.28 41.28 41.28 22.784 0 41.28-18.432 41.28-41.28v-97.344c0-22.784-18.496-41.216-41.28-41.216z" />
<glyph unicode="&#xe916;" glyph-name="camera" d="M675.84 396.8c0-90.486-73.354-163.84-163.84-163.84s-163.84 73.354-163.84 163.84c0 90.486 73.354 163.84 163.84 163.84s163.84-73.354 163.84-163.84zM358.4 908.8l-92.16-102.4h-163.84c-56.32 0-102.4-46.080-102.4-102.4v-614.4c0-56.32 46.080-102.4 102.4-102.4h819.2c56.32 0 102.4 46.080 102.4 102.4v614.4c0 56.32-46.080 102.4-102.4 102.4h-163.84l-92.16 102.4h-307.2zM512 140.8c-143.36 0-256 112.64-256 256s112.64 256 256 256c143.36 0 256-112.64 256-256s-112.64-256-256-256z" />
<glyph unicode="&#xe917;" glyph-name="camera-diafragma" d="M378.88 524.8l245.76 424.96c-35.84 5.12-76.8 10.24-112.64 10.24-122.88 0-235.52-40.96-322.56-117.76l189.44-322.56v5.12zM998.4 601.6c-46.080 148.48-158.72 271.36-307.2 322.56l-184.32-322.56h491.52zM1013.76 550.4h-384l15.358-25.6 245.762-424.96c81.92 92.16 133.12 215.040 133.12 348.16 0 35.84-5.12 71.68-10.24 102.4zM332.8 448l-199.68 348.16c-81.92-92.16-133.12-215.040-133.12-348.16 0-35.84 5.12-71.68 10.24-102.4h384l-61.44 102.4zM25.6 294.4c46.080-148.48 158.72-271.36 307.2-322.56l189.44 322.56h-496.64zM599.040 294.4l-199.68-348.16c35.84-10.24 71.68-10.24 112.64-10.24 122.88 0 235.52 40.96 322.56 117.76l-189.44 322.56-46.080-81.92z" />
<glyph unicode="&#xe918;" glyph-name="campana" d="M1025.472 160c0 288-256 224-256 448 0 18.56-1.792 34.432-5.056 47.936-16.832 113.024-92.16 203.712-189.76 231.36 0.896 3.968 1.344 8 1.344 12.224 0 33.28-28.8 60.48-64 60.48s-64-27.2-64-60.48c0-4.16 0.448-8.256 1.344-12.224-109.44-30.976-190.912-141.312-193.28-273.472-0.064-1.92-0.064-3.84-0.064-5.824 0-224-256-160-256-448 0-76.224 170.56-139.968 398.976-156.096 21.504-40.384 64.064-67.904 113.024-67.904s91.52 27.52 113.024 67.904c228.352 16.064 398.976 79.872 398.976 156.096 0 0.256 0 0.448 0 0.704l1.536-0.704zM826.24 105.92c-54.208-14.464-118.144-24.896-186.752-30.656-5.696 65.408-60.608 116.736-127.488 116.736s-121.792-51.328-127.488-116.736c-68.608 5.76-132.544 16.192-186.752 30.656-74.624 19.904-110.336 42.176-123.392 54.080 13.056 11.904 48.768 34.176 123.392 54.080 86.784 23.168 198.4 35.904 314.24 35.904s227.456-12.736 314.24-35.904c74.624-19.904 110.336-42.176 123.392-54.080-13.056-11.904-48.768-34.176-123.392-54.080z" />
<glyph unicode="&#xe919;" glyph-name="casa_enchufe" d="M936.67 530.326l-396.454 417.912c-7.11 7.499-16.982 11.741-27.329 11.762-10.343 0.017-20.236-4.215-27.36-11.711l-398.133-417.916c-10.418-10.936-13.312-27.007-7.367-40.889 5.949-13.868 19.6-22.863 34.676-22.863h54.184v-427.267c0-57.065 46.282-103.351 103.364-103.351h205.1v185.998c-54.607 15.178-94.91 64.73-94.91 124.176v100.486c-19.058 0-34.507 15.449-34.507 34.507 0 19.051 15.449 34.503 34.507 34.503h56.039v76.188c0 14.287 11.589 25.88 25.88 25.88s25.88-11.593 25.88-25.88v-76.188h51.76v76.208c0 14.287 11.589 25.88 25.88 25.88 14.287 0 25.88-11.589 25.88-25.88v-76.208h47.511c19.058 0 34.507-15.452 34.507-34.503 0-19.058-15.449-34.507-34.507-34.507l-0.014-100.503c-0.017-59.445-40.303-108.978-94.893-124.142v-186.012h205.134c57.082 0 103.347 46.285 103.347 103.351v427.26h54.438c15.080 0 28.71 8.979 34.659 22.83 5.969 13.868 3.105 29.926-7.272 40.878z" />
<glyph unicode="&#xe91a;" glyph-name="casa_seguro" d="M349.811 354.3c24.091 0 50.609-2.352 74.818-6.799v72.518h176.375v-129.425c20.75-7.619 35.901-15.836 50.125-26.169 26.965-19.588 41.784-45.301 42.672-73.504 34.324 8.11 65.805 21.86 93.047 40.591 9.842 6.765 21.656 12.685 28.573 17.765v201.424l-303.424 339.045-308.702-341.089v-121.896c20.75 5.26 39.66 10.915 61.579 16.891 25.924 7.065 54.694 10.648 84.937 10.648zM513.376 872.459l343.012-383.274h78.231l-421.931 470.815-174.518-192.187v77.581h-127.958v-218.965l-123.058-137.244h79.345zM895.997 216.696c-19 0-44.578-8.438-77.083-30.783-59.421-40.846-132.16-58.833-198.623-58.833-54.030 0-103.906 11.879-139.129 33.013-17.451 10.472-17.399 13.968-7.276 13.968 20.328 0 81.285-14.107 122.595-14.107 20.328 0 35.894 3.413 39.536 13.605 16.832 47.13-48.42 62.305-116.65 89.917-49.952 20.224-110.919 35.489-168.978 35.493-24.205 0-48.119-2.653-70.315-8.705-100.779-27.476-173.605-48.175-194.355-54.894v-264.494c41.5 15.262 89.571 29.887 116.926 29.887 50.201 0 253.334-64.761 368.348-64.761 16.109 0 30.534 1.269 42.531 4.164 97.619 23.565 267.094 161.591 313.094 208.714 22.085 22.624 13.349 67.815-30.62 67.815z" />
<glyph unicode="&#xe91b;" glyph-name="certificado" d="M990.608 959.524h-957.216c-18.446 0-33.392-14.946-33.392-33.392v-667.826c0-18.444 14.946-33.386 33.392-33.386h389.784l-81-185.184c-11.742-26.874 14.532-54.796 42.022-44.76l57.36 20.88 20.88-57.38c10.048-27.62 49.684-30.336 62.010-1.858l65.468 150.974 65.466-150.978c11.998-27.686 51.696-26.492 62.010 1.858l20.88 57.38 57.36-20.88c27.448-10.032 53.774 17.862 42.022 44.76l-81 185.184h233.958c18.434 0 33.392 14.946 33.392 33.392v667.824c-0.004 18.446-14.962 33.392-33.396 33.392zM589.914 224.92c-55.238 0-100.174 44.936-100.174 100.174s44.936 100.174 100.174 100.174c55.238 0 100.174-44.936 100.174-100.174-0.002-55.238-44.936-100.174-100.174-100.174zM300.522 625.614c-18.446 0-33.392 14.946-33.392 33.392s14.946 33.392 33.392 33.392h422.956c18.446 0 33.392-14.946 33.392-33.392s-14.946-33.392-33.392-33.392h-422.956zM422.956 525.44c0-18.446-14.946-33.392-33.392-33.392h-89.044c-18.446 0-33.392 14.946-33.392 33.392s14.946 33.392 33.392 33.392h89.044c18.446 0 33.392-14.946 33.392-33.392zM890.434 458.658c0-18.446-14.946-33.392-33.392-33.392-18.412 0-33.392-14.98-33.392-33.392 0-18.446-14.946-33.392-33.392-33.392h-36.758c-5.036 24.71-15.686 47.334-30.342 66.782h39.424c10.076 28.424 32.642 50.988 61.066 61.066v211.786c-28.424 10.076-50.988 32.642-61.066 61.066h-501.168c-10.076-28.424-32.642-50.988-61.066-61.066v-211.784c28.424-10.076 50.988-32.418 61.066-60.844h195.25c-14.656-19.45-25.306-42.296-30.342-67.006h-192.582c-18.446 0-33.392 14.946-33.392 33.392 0 18.412-14.98 33.392-33.392 33.392-18.446 0-33.392 14.946-33.392 33.392v267.13c0 18.446 14.946 33.392 33.392 33.392 18.412 0 33.392 14.98 33.392 33.392 0 18.446 14.946 33.392 33.392 33.392h556.52c18.446 0 33.392-14.946 33.392-33.392 0-18.412 14.98-33.392 33.392-33.392 18.446 0 33.392-14.946 33.392-33.392v-267.13z" />
<glyph unicode="&#xe91c;" glyph-name="ciudad" d="M1000.242 491.954h-49.894v97.41c0 13.122-10.64 23.758-23.758 23.758h-73.652v71.378c0 13.122-10.378 23.658-23.5 23.658h-73.91v59.398c0 13.122-10.64 23.758-23.758 23.758-13.12 0-23.758-10.636-23.758-23.758v-59.396h-80.78v192.444c0 13.122-9.72 23.758-22.84 23.758h-160.38c-13.122 0-23.48-10.64-23.48-23.758v-66.524h-136.9c-13.122 0-24.66-11.278-24.66-24.4v-125.28h-35.638v11.88c0 13.122-10.64 23.758-23.758 23.758-13.12 0-23.758-10.636-23.758-23.758v-11.88h-52.272c-13.12 0-23.758-10.636-23.758-23.758v-178.19h-76.030c-13.118 0-23.758-10.638-23.758-23.76s10.64-23.758 23.758-23.758h47.686c24.294 44.71 53.7 68.258 85.43 68.258 7.458 0 14.788-1.304 21.95-3.876 2.126 4.92 4.358 9.748 6.688 14.434 25.162 50.602 56.338 77.348 90.152 77.348s64.99-26.748 90.152-77.348c2.584-5.196 5.036-10.578 7.368-16.056 8.454 3.636 17.146 5.498 26.026 5.498 7.458 0 14.788-1.304 21.95-3.876 2.126 4.92 4.358 9.748 6.688 14.434 25.162 50.602 56.34 77.348 90.152 77.348s64.99-26.748 90.152-77.348c2.586-5.196 5.036-10.578 7.368-16.056 8.454 3.636 17.146 5.498 26.026 5.498 7.458 0 14.788-1.304 21.95-3.876 2.126 4.92 4.358 9.748 6.688 14.434 25.162 50.602 56.338 77.348 90.152 77.348s64.99-26.748 90.152-77.348c2.584-5.196 5.036-10.578 7.368-16.056 8.454 3.636 17.146 5.498 26.026 5.498 29.396 0 56.798-20.226 79.988-58.756h36.37c13.12 0 23.758 10.636 23.758 23.758 0.002 13.124-10.638 23.76-23.756 23.76zM275.668 543.582c-18.958 0-42.196-34.41-57.436-73.16 10.25-11.798 19.9-26.69 28.796-44.578 15.916-32.004 27.322-70.568 30.252-100.802 0.51 0.012 1.024 0.016 1.532 0.038 2.934 30.228 14.34 68.772 30.248 100.76 7.948 15.982 16.494 29.574 25.534 40.706-15.186 40.3-39.34 77.036-58.926 77.036zM518.006 543.582c-18.958 0-42.196-34.41-57.436-73.16 10.25-11.798 19.9-26.69 28.796-44.578 15.916-32.004 27.322-70.568 30.252-100.802 0.51 0.012 1.024 0.016 1.532 0.038 2.934 30.228 14.34 68.772 30.248 100.76 7.948 15.982 16.494 29.574 25.534 40.706-15.186 40.3-39.34 77.036-58.926 77.036zM760.342 543.582c-18.958 0-42.196-34.41-57.436-73.16 10.25-11.798 19.9-26.69 28.796-44.578 15.916-32.004 27.322-70.568 30.252-100.802 0.51 0.012 1.024 0.016 1.532 0.038 2.934 30.228 14.34 68.772 30.248 100.76 7.948 15.98 16.494 29.574 25.534 40.704-15.184 40.302-39.338 77.038-58.926 77.038zM909.094 84.224c-41.36 2.368-82.566 3.020-122.468 1.942-19.674-0.532-35.194-16.914-34.662-36.588 0.522-19.35 16.37-34.676 35.604-34.676 0.328 0 0.654 0.004 0.982 0.012 37.922 1.032 77.102 0.404 116.468-1.85 0.694-0.040 1.382-0.060 2.070-0.060 18.75 0 34.462 14.648 35.548 33.604 1.126 19.65-13.894 36.49-33.542 37.616zM721.992 47.434c-2.026 19.574-19.582 33.804-39.118 31.772-14.674-1.52-29.674-3.27-45.866-5.348-19.522-2.508-33.314-20.366-30.808-39.888 2.312-17.98 17.644-31.1 35.302-31.1 1.514 0 3.044 0.098 4.586 0.294 15.608 2.006 30.046 3.69 44.13 5.148 19.576 2.030 33.804 19.546 31.774 39.122zM570.552 28.474c-2.844 19.476-20.93 32.952-40.416 30.12-50.244-7.338-103.72-14.576-156.508-15.436-60.428-0.988-116.552 1.026-166.838 5.98-19.608 1.92-37.030-12.386-38.96-31.974-1.93-19.59 12.386-37.030 31.972-38.96 44.328-4.366 92.774-6.566 144.384-6.566 10.080 0 20.288 0.084 30.602 0.252 57.026 0.928 113.1 8.498 165.65 16.172 19.474 2.844 32.956 20.938 30.114 40.412zM927.874 189.958c-7.798 0.542-15.584 1.002-23.362 1.424-0.56-0.098-1.116-0.212-1.682-0.302v48.496c31.462 8.382 54.71 37.106 54.71 71.172 0 52.474-42.578 144.928-73.652 144.928s-73.652-92.454-73.652-144.928c0-30.484 18.614-56.7 45.078-67.88v-49.852c-0.356 0.086-0.72 0.16-1.076 0.25-22.796 0.468-45.386 0.418-67.612-0.182-44.902-1.214-86.472-4.788-126.132-9.42v55.918c31.462 8.382 54.71 37.106 54.71 71.172 0 52.474-42.578 144.928-73.652 144.928s-73.652-92.454-73.652-144.928c0-30.484 18.614-56.7 45.078-67.88v-65.298c-19.552-2.702-38.76-5.542-57.784-8.36-47.228-7.002-92.492-13.712-137.038-17.040v87.412c31.462 8.382 54.71 37.106 54.71 71.172 0 52.474-42.578 144.928-73.652 144.928s-73.652-92.454-73.652-144.928c0-30.484 18.614-56.7 45.078-67.88v-92.824c-72.63-1.070-137.812 2.124-194.822 9.506v80.030c31.462 8.382 54.71 37.106 54.71 71.172 0 52.474-42.578 144.928-73.652 144.928s-73.656-92.462-73.656-144.936c0-30.484 18.614-56.7 45.078-67.88v-75.848c-10.422 1.958-20.536 4.072-30.282 6.362-19.16 4.508-38.342-7.378-42.844-26.538-4.502-19.162 7.378-38.344 26.538-42.846 71.918-16.904 159.942-25.444 262.034-25.444 10.204 0 20.558 0.086 31.044 0.256 63.666 1.038 125.448 10.198 190.856 19.894 69.378 10.286 141.12 20.92 222.906 23.13 43.702 1.18 88.912 0.176 134.38-2.986 19.62-1.35 36.662 13.442 38.026 33.080 1.364 19.632-13.448 36.656-33.082 38.022z" />
<glyph unicode="&#xe91d;" glyph-name="coche" d="M221.866 384.332c-47.052 0-85.334-38.28-85.334-85.334 0-47.052 38.28-85.334 85.334-85.334 47.052 0 85.334 38.28 85.334 85.334 0 47.052-38.28 85.334-85.334 85.334zM221.866 247.798c-28.228 0-51.2 22.972-51.2 51.2s22.972 51.2 51.2 51.2 51.2-22.972 51.2-51.2-22.972-51.2-51.2-51.2zM1006.934 384.332v102.4c0 7.338-4.694 13.876-11.674 16.196l-96.29 32.102c-36.266 61.422-86.118 119.876-196.284 139.178-0.204 0.034-0.41 0.068-0.614 0.102-203.452 28.126-356.198-17.766-454.264-136.448-72.994-1.058-147.508-16.316-191.334-44.374-22.698-14.54-36.164-39.85-37.428-66.782l-1.98-42.376c-9.42 0-17.066-7.646-17.066-17.066v-68.266c0-9.42 7.646-17.066 17.066-17.066h68.266c9.472 0 17.050 7.782 17.066 17.254 0 0.086 0.018 0.17 0.018 0.274 0.256 65.758 53.624 119.006 119.45 119.006 65.98 0 119.466-53.486 119.466-119.466-1.228-10.36 6.946-17.066 17.066-17.066h307.2c9.472 0 17.050 7.782 17.066 17.254 0 0.086 0.016 0.17 0.016 0.274 0.256 65.758 53.624 119.006 119.45 119.006 65.98 0 119.466-53.486 119.466-119.466-1.228-10.36 6.946-17.066 17.066-17.066h68.266c9.42 0 17.066 7.646 17.066 17.066v68.266c0.006 9.418-7.64 17.064-17.060 17.064zM546.134 546.464c0-4.71-3.822-8.534-8.534-8.534h-222.566c-7.884 0-11.468 9.694-5.65 15.002 59.222 53.982 134.536 84.856 227.346 93.064 5 0.444 9.404-3.584 9.404-8.602v-90.93zM751.172 546.38c-0.052-4.676-3.858-8.448-8.534-8.448h-153.838c-4.71 0-8.534 3.822-8.534 8.534v93.184c0 4.728 3.772 8.618 8.482 8.618 34.030 0.034 70.042-2.44 108.322-7.732 18.228-3.208 34.474-7.612 49.254-13.022 3.396-1.246 5.564-4.54 5.53-8.158l-0.682-72.976zM840.244 537.932h-46.404c-4.744 0-8.584 3.874-8.534 8.618l0.444 46.25c0.068 7.048 8.106 10.872 13.79 6.708 18.45-13.482 33.792-29.542 47.462-47.77 4.266-5.682 0.34-13.806-6.758-13.806zM802.134 384.332c-47.052 0-85.334-38.28-85.334-85.334 0-47.052 38.28-85.334 85.334-85.334 47.052 0 85.334 38.28 85.334 85.334-0.002 47.052-38.282 85.334-85.334 85.334zM802.134 247.798c-28.228 0-51.2 22.972-51.2 51.2s22.972 51.2 51.2 51.2c28.228 0 51.2-22.972 51.2-51.2s-22.972-51.2-51.2-51.2z" />
<glyph unicode="&#xe91e;" glyph-name="compas_aparejadores" d="M325.509 584.069c-79.34-226.222-224.317-648.069-224.317-648.069s222.679 255.836 383.324 441.917c-90.849 105.492-138.588 162.079-142.479 168.776-6.902 11.981-12.288 24.535-16.527 37.376zM922.808-64c0 0-264.868 770.621-274.555 787.436-20.767 35.983-53.801 60.211-90.726 71.188v119.828c0 25.149-20.378 45.548-45.527 45.548s-45.527-20.398-45.527-45.548v-120.402c-10.691-3.379-21.197-7.68-31.293-13.517-74.629-43.069-100.168-138.506-57.098-213.053 9.708-16.794 544.727-631.48 544.727-631.48zM512 707.871c40.182 0 72.765-32.584 72.765-72.786s-32.584-72.765-72.765-72.765c-40.182 0-72.765 32.584-72.765 72.786s32.584 72.765 72.765 72.765z" />
<glyph unicode="&#xe91f;" glyph-name="compass" d="M386.719 514.719l-125.072-429.176 1.673-149.542 81.987 125.072 117.124 400.732c-30.327 9.83-56.261 28.444-75.712 52.915zM636.863 514.719c-18.614-24.471-44.758-43.085-74.667-53.542l117.124-400.732 81.359-124.444 1.673 149.542-125.49 429.176zM628.078 611.346v178.824h-95.163v48.732h26.771v121.098h-95.163v-121.935h26.771v-48.732h-96v-178.824c0-64.209 52.078-116.288 116.288-116.288 64.418 0.837 116.497 52.915 116.497 117.124zM511.791 547.137c-25.935 0-47.059 21.124-47.059 47.059s21.124 47.059 47.059 47.059c25.935 0 47.059-21.124 47.059-47.059s-21.124-47.059-47.059-47.059z" />
<glyph unicode="&#xe920;" glyph-name="compass-limbo" d="M512 504.32c-30.72 0-56.32-25.6-56.32-56.32s25.6-56.32 56.32-56.32 56.32 25.6 56.32 56.32-25.6 56.32-56.32 56.32zM512 960c-281.6 0-512-230.4-512-512s230.4-512 512-512 512 230.4 512 512-230.4 512-512 512zM624.64 335.36l-419.84-194.56 194.56 419.84 419.84 194.56-194.56-419.84z" />
<glyph unicode="&#xe921;" glyph-name="config" d="M263.714 137.143c11.486-9.143 17.371-23.886 14.4-38.343l-13.771-71.429c-3.314-17.714 6.514-34.743 22.914-40.914l89.143-33.371c16.4-6.229 35.029 0.686 44.229 16.057l35.371 61.257c7.543 12.8 21.6 20.343 36.343 19.657 20.971-0.971 42.286-0.343 63.2 1.943 14.743 1.657 28.8-4.571 37.371-16.686l40.914-60.286c10.171-14.743 29.486-20 45.543-12.743l86.457 40c16.4 7.543 24.914 25.543 20.343 42.914l-18.343 68.114c-3.943 14.4 0.971 29.486 11.771 39.314 15.714 14.4 30.457 29.829 43.543 46.171 9.143 11.486 23.886 17.029 38 14.4l71.429-13.771c17.714-3.257 34.743 6.571 40.971 22.914l33.371 89.143c6.229 16.343-0.686 35.086-16.057 44.229l-61.6 34.743c-13.086 7.2-20.629 21.6-20 36.686 0.971 20.971 0.343 41.943-1.943 63.2-1.657 14.743 4.571 28.857 16.686 37.371l60.286 40.971c14.743 10.171 20 29.486 12.8 45.543l-20 43.2-20 43.257c-7.543 16.4-25.543 24.914-42.914 20.286l-68.114-18.343c-14.4-3.943-29.829 0.971-39.657 12.114-14.743 16.686-30.8 31.429-47.829 44.857-11.771 9.2-17.714 23.886-14.743 38.686l13.429 70.4c3.257 17.714-6.571 34.743-22.971 40.971l-89.143 33.371c-16.343 6.229-35.029-0.686-44.229-16.057l-36.057-62.286c-7.543-12.743-21.257-20-36-19.314-21.257 0.971-42.571 0.343-63.886-2.286-14.743-1.657-29.143 4.571-37.371 17.029l-40.057 59.2c-9.829 14.4-28.8 20-44.857 13.429l-43.257-20-42.286-20.286c-16.343-7.543-24.914-25.543-20-42.914l18.686-69.086c3.943-14.057-0.686-29.486-11.771-39.314-15.714-14.4-30.457-30.114-43.543-46.857-9.143-11.429-23.886-17.371-38.286-14.4l-70.8 13.429c-17.714 3.257-34.743-6.571-40.914-22.971l-16.686-44.514-16.686-44.571c-6.286-16.343 0.571-34.971 16-44.171l62.229-36c12.8-7.543 20-21.314 19.314-36.057-0.971-21.257-0.343-42.571 2.286-63.886 1.657-14.743-4.571-29.143-17.029-37.314l-58.971-39.6c-14.743-10.171-20-29.486-12.8-45.543l20-43.257 20-43.2c7.543-16.4 25.543-24.914 42.914-20.343l69.086 18.686c14.4 3.943 29.486-0.971 39.314-11.771 13.771-15.086 28.514-29.2 44.229-41.657zM421.943 637.314c104.8 49.829 230.229 5.257 280.057-99.6 49.771-104.8 5.257-230.229-99.6-280.057-104.8-49.771-230.229-5.257-280.057 99.543-49.771 104.857-5.257 230.343 99.6 280.114z" />
<glyph unicode="&#xe922;" glyph-name="cono_obra" d="M511.984 337.146c127.479 0 234.189 43.318 240.653 99.862-18.955 53.174-39.627 111.158-59.937 168.151-14.101-40.651-91.98-69.313-180.706-69.313-88.705 0-166.583 28.672-180.706 69.302-20.31-56.982-40.96-114.956-59.915-168.14 6.443-56.545 113.132-99.862 240.611-99.862zM511.984 694.76c59.915 0 115.585 18.55 131.873 47.35-22.454 63.073-41.75 117.185-53.942 151.33-8.096 22.752-44.811 34.571-77.931 34.571s-69.835-11.819-77.942-34.571c-12.171-34.144-31.456-88.257-53.942-151.33 16.299-28.8 71.99-47.35 131.884-47.35zM980.298 284.462l-200.29 80.673 23.062-64.353c-1.163-68.203-133.559-122.551-291.086-122.551-157.506 0-289.923 54.347-291.064 122.551l23.040 64.353-200.269-80.673c-56.15-22.624-58.497-64.523-5.227-93.078l376.665-201.975c53.27-28.555 140.46-28.555 193.73 0l376.665 201.975c53.281 28.555 50.923 70.454-5.227 93.078z" />
<glyph unicode="&#xe923;" glyph-name="contrato_casa" d="M969.672 683.11l-267.088 267.088c-5.78 5.788-14.678 9.802-23.628 9.802h-601.042c-18.434 0-33.392-14.946-33.392-33.392v-957.218c0-18.446 14.958-33.392 33.392-33.392h868.174c18.434 0 33.392 14.946 33.392 33.392v690.088c-0.002 9.218-4.166 18.002-9.808 23.632zM211.478 336.696c-18.434 0-33.392 14.946-33.392 33.392s14.958 33.392 33.392 33.392h333.914c18.434 0 33.392-14.946 33.392-33.392s-14.958-33.392-33.392-33.392h-333.914zM378.434 236.522c0-18.446-14.958-33.392-33.392-33.392h-133.566c-18.434 0-33.392 14.946-33.392 33.392s14.958 33.392 33.392 33.392h133.566c18.436 0 33.392-14.946 33.392-33.392zM190.608 685.554l54.26 43.408v64.080c0 18.446 14.958 33.392 33.392 33.392s33.392-14.946 33.392-33.392v-10.654l45.912 36.73c12.216 9.762 29.522 9.762 41.74 0l166.956-133.566c24.55-19.654 10.6-59.468-20.87-59.468h-33.39v-100.174c0-18.446-14.958-33.392-33.392-33.392h-200.348c-18.434 0-33.392 14.946-33.392 33.392v100.174h-33.392c-31.45 0.002-45.434 39.8-20.868 59.47zM812.522 69.566h-601.044c-18.434 0-33.392 14.946-33.392 33.392s14.958 33.392 33.392 33.392h601.044c18.434 0 33.392-14.946 33.392-33.392s-14.958-33.392-33.392-33.392zM812.522 203.13h-333.914c-18.434 0-33.392 14.946-33.392 33.392s14.958 33.392 33.392 33.392h333.912c18.434 0 33.392-14.946 33.392-33.392 0.002-18.446-14.956-33.392-33.39-33.392zM812.522 336.696h-133.566c-18.434 0-33.392 14.946-33.392 33.392s14.958 33.392 33.392 33.392h133.566c18.434 0 33.392-14.946 33.392-33.392s-14.958-33.392-33.392-33.392zM712.348 692.87v153.13l153.13-153.13h-153.13z" />
<glyph unicode="&#xe924;" glyph-name="contrato_casa02" d="M830.347 960h-634.397c-43.729 0-80.448-35.571-80.448-79.3v-865.401c0-43.729 36.719-79.3 80.448-79.3h557.328l155.22 156.372v788.328c0 43.729-34.423 79.3-78.152 79.3zM170.667 15.3v865.401c0 13.305 11.978 24.135 25.283 24.135h634.397c13.305 0 22.987-10.83 22.987-24.135v-748.175h-141.36v-141.36h-516.024c-13.305 0-25.283 10.83-25.283 24.135zM229.279 791.057h282.721v-55.165h-282.721v55.165zM229.279 677.279h568.889v-55.165h-568.889v55.165zM229.279 563.502h568.889v-55.165h-568.889v55.165zM229.279 449.724h568.889v-55.165h-568.889v55.165zM388.182 336.705l-157.058-169.701h53.32v-117.226h72.404v88.374c0 15.236 12.35 27.582 27.586 27.582 15.232 0 27.579-12.347 27.579-27.582v-88.374h75.852v117.226h55.617l-155.3 169.701zM638.735 208.622l-62.974 66.925-40.174-37.802 105.72-112.361 157.393 189.492-42.436 35.244z" />
<glyph unicode="&#xe925;" glyph-name="cristal_nieve" d="M959.48 701.919l-45.789 27.057-124.878-66.602v89.496l-33.301 18.732-31.22-18.732v-139.447l-85.333-43.707v95.74l-85.333-47.87v89.496l129.041 64.52v43.707l-45.789 24.976-83.252-43.707v135.285l-41.626 29.138-41.626-29.138v-135.285l-72.846 43.707-35.382-22.894v-47.87l108.228-62.439v-89.496l-85.333 45.789v-93.659l-79.089 45.789 2.081 131.122-41.626 24.976-31.22-24.976v-85.333l-120.715 66.602-49.951-22.894v-54.114l118.634-64.52-77.008-43.707v-47.87l43.707-20.813 110.309 64.52 77.008-43.707-77.008-47.87 79.089-45.789h2.081l-77.008-45.789-112.39 66.602-45.789-24.976v-49.951l79.089-37.463-120.715-68.683v-54.114l52.033-20.813 118.634 66.602v-85.333l29.138-22.894 35.382 24.976v129.041l85.333 43.707v-93.659l85.333 52.033v-89.496l-108.228-62.439v-47.87l35.382-22.894 72.846 43.707v-135.285l41.626-29.138 41.626 29.138v135.285l72.846-43.707 35.382 18.732v52.033l-108.228 62.439v89.496l85.333-47.87v87.415l85.333-45.789v-129.041l33.301-22.894 31.22 22.894v85.333l116.553-64.52 54.114 22.894v52.033l-112.39 68.683 70.764 39.545v45.789l-39.545 24.976-114.472-62.439-81.171 41.626 79.089 45.789-74.927 47.87 77.008 49.951 114.472-66.602 39.545 20.813v47.87l-74.927 41.626 116.553 66.602v49.951zM553.626 383.48h-74.927l-39.545 62.439 37.463 66.602h74.927l35.382-66.602-33.301-62.439z" />
<glyph unicode="&#xe926;" glyph-name="descargar-libros" d="M827.732 533.333c-29.865 145.067-157.865 256-315.732 256-123.733 0-230.4-68.267-281.6-170.667-132.267-17.067-230.4-123.733-230.4-256 0-140.8 115.2-256 256-256h554.667c119.467 0 213.333 93.867 213.333 213.333 0 110.933-89.602 204.8-196.268 213.333zM512 127.895l-106.667 106.667h64v85.333h85.333v-85.333h64l-106.667-106.667zM674.759 340.634h-279.013c-25.578 0-46.502 20.937-46.502 46.502v279.012c0 25.58 20.923 46.502 46.502 46.502h232.51v-279.012h-220.884c-19.279 0-34.876-15.621-34.876-34.876s15.598-34.876 34.876-34.876h244.137v302.262h23.251v-325.513zM628.231 410.388v-23.251h-220.861c-6.417 0-11.625 5.222-11.625 11.625s5.209 11.625 11.625 11.625h220.861z" />
<glyph unicode="&#xe927;" glyph-name="device-connected" d="M116.364 261.818v-93.091c130.327 0 232.727-102.4 232.727-232.727h93.091c0 181.527-144.291 325.818-325.818 325.818zM116.364 75.636v-139.636h139.636c0 79.127-60.509 139.636-139.636 139.636zM116.364 448v-93.091c232.727 0 418.909-186.182 418.909-418.909h93.091c0 283.927-228.073 512-512 512zM814.545 960h-465.455c-51.2 0-93.091-41.891-93.091-93.091v-344.436c32.582-9.309 65.164-18.618 93.091-27.927v279.273h465.455v-605.091h-139.636c23.273-55.855 37.236-121.018 41.891-186.182h97.745c51.2 0 93.091 41.891 93.091 93.091v791.273c0 51.2-41.891 93.091-93.091 93.091z" />
<glyph unicode="&#xe928;" glyph-name="device-connected-1" d="M0 168.727v-139.636h139.636c0 79.127-60.509 139.636-139.636 139.636zM0 354.909v-93.091c130.327 0 232.727-102.4 232.727-232.727h93.091c0 181.527-144.291 325.818-325.818 325.818zM837.818 680.727h-651.636v-74.473c186.182-60.509 330.473-204.8 390.982-390.982h260.655v465.455zM0 541.091v-93.091c232.727 0 418.909-186.182 418.909-418.909h93.091c0 283.927-228.073 512-512 512zM930.909 866.909h-837.818c-51.2 0-93.091-41.891-93.091-93.091v-139.636h93.091v139.636h837.818v-651.636h-325.818v-93.091h325.818c51.2 0 93.091 41.891 93.091 93.091v651.636c0 51.2-41.891 93.091-93.091 93.091z" />
<glyph unicode="&#xe929;" glyph-name="discapacitado" d="M468.972 758.181c55.673 0 100.905 45.179 100.905 100.909 0 55.746-45.231 100.911-100.905 100.911-55.738 0-100.932-45.164-100.932-100.911 0-55.73 45.194-100.909 100.932-100.909zM624.907 186.366c-26.815-93.105-112.648-161.482-214.272-161.482-123.065 0-223.146 100.084-223.146 223.112 0 91.070 54.941 169.454 133.347 204.090v94.587c-128.402-38.675-222.219-157.868-222.219-298.678 0-172.026 139.968-311.997 312.015-311.997 125.38 0 233.448 74.516 283.001 181.434l-35.23 69.217c-9.889-0.081-21.345-0.185-33.496-0.285zM918.899 66.583l-135.164 265.737c-10.089 19.884-30.482 32.399-52.791 32.399h-173.117v39.476h148.991c14.878 0 27.383 7.776 35.461 18.978 5.249 7.297 8.983 15.775 8.983 25.468 0 24.538-19.875 44.44-44.444 44.44h-148.991v133.893c0 36.824-27.304 88.884-88.853 88.884-49.088 0-88.882-39.801-88.882-88.884v-290.090c0-50.074 40.594-90.668 90.67-90.668h223.853l118.69-233.361c10.43-20.554 31.244-32.414 52.845-32.414 9.054 0 18.235 2.069 26.815 6.461 29.21 14.815 40.812 50.512 25.934 79.68z" />
<glyph unicode="&#xe92a;" glyph-name="edificio" d="M706.688 519.872v181.6l-41.024 7.904v99.84l-146.144 35.328v0.192l-0.512-0.096-0.48 0.096v-0.224l-153.28-36.736v-100.512l-41.664-7.936v-184.768l-323.584-32.288v-369.76l519.424-61.28 30.688 3.616v175.264l138.176 5.248v-164.064l335.712 39.264v376.704l-317.312 32.608zM36.064 458.112l103.136 8.64v-26.080l-103.136-7.2v24.64zM139.2 215.872l-103.136 5.44v24.672l103.136-3.968v-26.144zM139.2 269.12l-103.136 2.432v24.672l103.136-0.992v-26.112zM139.456 327.488l-103.168-0.8v24.672l103.168 2.24v-26.112zM139.456 380.768l-103.168-3.808v24.672l103.168 5.312v-26.176zM168.224 468.8l119.968 10.016v-28.256l-119.968-8.32v26.56zM288.192 207.552l-119.968 6.368v26.496l119.968-4.672v-28.192zM288.192 265.184l-119.968 2.88v26.496l119.968-1.184v-28.192zM288.544 328.256l-120.032-0.896v26.496l120.032 2.656v-28.256zM288.544 385.888l-120.032-4.448v26.56l120.032 6.080v-28.192zM344.896 664.416l144.64 24.864v-31.072l-144.64-22.816v29.024zM344.896 605.184l144.64 20.672v-31.104l-144.64-18.624v29.056zM344.576 544.96l144.608 16.448v-31.104l-144.608-14.368v29.024zM344.576 485.76l144.608 12.256v-31.104l-144.608-10.176v29.024zM489.152 199.296l-144.608 7.456v29.024l144.608-5.44v-31.040zM489.152 262.688l-144.608 3.328v29.024l144.608-1.248v-31.104zM489.568 332.192l-144.672-1.248v28.992l144.672 3.328v-31.072zM489.568 395.616l-144.672-5.472v29.056l144.672 7.456v-31.040zM549.312 687.744l138.304-23.872v-29.856l-138.304 21.856v31.872zM548.512 558.176l138.368-15.616v-29.856l-138.368 13.6v31.872zM548.864 495.168l138.368-11.584v-29.888l-138.368 9.6v31.872zM549.472 360.768l138.304-3.072v-29.856l-138.304 0.96v31.968zM687.968 264.48l-138.208-3.296v31.872l138.208 1.248v-29.824zM687.968 388l-138.208 5.088v31.84l138.208-7.136v-29.792zM687.968 575.008l-138.208 17.824v31.872l138.208-19.84v-29.856zM740 479.84l115.744-9.76v-27.36l-115.744 8.064v29.056zM856.384 409.792v-27.36l-115.616 4.352v29.024l115.616-6.016zM740.512 357.248l115.712-2.56v-27.36l-115.712 0.864v29.056zM740.672 295.488l115.68 0.992v-27.36l-115.68-2.688v29.056zM856.672 215.104l-115.648-6.080v29.056l115.648 4.416v-27.392zM889.536 467.328l99.392-8.384v-25.44l-99.392 6.912v26.912zM989.472 402.944v-25.376l-99.328 3.68v26.88l99.328-5.184zM889.984 353.984l99.328-2.208v-25.408l-99.328 0.736v26.88zM890.112 296.928l99.328 0.832v-25.408l-99.328-2.336v26.912zM989.76 222.176l-99.328-5.216v26.912l99.328 3.712v-25.408z" />
<glyph unicode="&#xe92b;" glyph-name="email" d="M1024 130.2v635.601l-353.070-317.8zM512 304.946l-100.803 90.734-353.073-317.8h907.751l-353.073 317.8zM965.876 818.12h-907.751l453.876-408.535zM0 765.8v-635.601l353.070 317.8z" />
<glyph unicode="&#xe92c;" glyph-name="estadisticas" d="M165.696 96.832h814.336v-116.288h-930.688v930.56h116.288v-814.272zM311.104 155.008c-48.192 0-87.232 39.040-87.232 87.232 0 48.128 39.040 87.232 87.232 87.232 2.56 0 5.12-0.128 7.616-0.384l93.696 156.288c-8.896 13.632-14.080 30.080-14.080 47.616 0 48.128 39.040 87.232 87.232 87.232 48.064 0 87.232-39.104 87.232-87.232 0-17.536-5.312-33.92-14.208-47.616l93.76-156.288c2.496 0.256 4.992 0.384 7.68 0.384 1.856 0 3.776-0.064 5.76-0.256l154.816 270.912c-9.6 13.952-15.168 30.912-15.168 49.152 0 48.128 39.040 87.232 87.232 87.232 48.128 0 87.232-39.104 87.232-87.232s-39.104-87.232-87.232-87.232c-1.92 0-3.84 0-5.824 0.192l-154.816-270.912c9.536-14.080 15.232-30.976 15.232-49.152 0-48.192-39.168-87.232-87.232-87.232-48.192 0-87.232 39.040-87.232 87.232 0 17.536 5.184 33.856 14.080 47.552l-93.632 156.416c-2.496-0.192-5.12-0.32-7.616-0.32-2.624 0-5.184 0.128-7.68 0.32l-93.696-156.352c8.96-13.568 14.144-30.016 14.144-47.552 0-48.192-39.168-87.232-87.296-87.232z" />
<glyph unicode="&#xe92d;" glyph-name="etiqueta" d="M329.143 704q0 30.286-21.429 51.714t-51.714 21.429-51.714-21.429-21.429-51.714 21.429-51.714 51.714-21.429 51.714 21.429 21.429 51.714zM938.857 374.857q0-30.286-21.143-51.429l-280.571-281.143q-22.286-21.143-52-21.143-30.286 0-51.429 21.143l-408.571 409.143q-21.714 21.143-36.857 57.714t-15.143 66.857v237.714q0 29.714 21.714 51.429t51.429 21.714h237.714q30.286 0 66.857-15.143t58.286-36.857l408.571-408q21.143-22.286 21.143-52z" />
<glyph unicode="&#xe92e;" glyph-name="etiquetas" d="M219.429 704q0 30.286-21.429 51.714t-51.714 21.429-51.714-21.429-21.429-51.714 21.429-51.714 51.714-21.429 51.714 21.429 21.429 51.714zM829.143 374.857q0-30.286-21.143-51.429l-280.571-281.143q-22.286-21.143-52-21.143-30.286 0-51.429 21.143l-408.571 409.143q-21.714 21.143-36.857 57.714t-15.143 66.857v237.714q0 29.714 21.714 51.429t51.429 21.714h237.714q30.286 0 66.857-15.143t58.286-36.857l408.571-408q21.143-22.286 21.143-52zM1048.571 374.857q0-30.286-21.143-51.429l-280.571-281.143q-22.286-21.143-52-21.143-20.571 0-33.714 8t-30.286 25.714l268.571 268.571q21.143 21.143 21.143 51.429 0 29.714-21.143 52l-408.571 408q-21.714 21.714-58.286 36.857t-66.857 15.143h128q30.286 0 66.857-15.143t58.286-36.857l408.571-408q21.143-22.286 21.143-52z" />
<glyph unicode="&#xe92f;" glyph-name="euro" d="M805.236 855.327l-33.414-156.831c-32.088 32.081-78.91 48.126-140.413 48.126-61.535 0-111.367-22.092-149.476-66.252-21.514-24.905-36.803-56.059-45.867-93.416h311.429l-18.127-87.768h-304.625c-0.379-8.688-0.578-19.808-0.578-33.415 0-13.209 0.374-26.99 1.131-41.322h288.205l-18.127-87.768h-258.205c9.437-40.397 23.975-72.103 43.609-95.124 37.755-44.538 86.812-66.804 147.216-66.804 72.478 0 130.247 22.267 173.275 66.804v-173.274c-49.082-24.525-106.271-36.804-171.568-36.804-110.237 0-200.818 37.729-271.788 113.248-48.331 51.338-80.212 115.306-95.7 191.953h-83.801l18.126 87.768h55.483c-0.378 9.063-0.578 18.677-0.578 28.871 0 17.37 0.373 32.659 1.129 45.867h-74.185l18.126 87.768h67.381c15.868 75.111 47.371 137.974 94.572 188.564 71.348 76.241 165.138 114.379 281.401 114.379 63.417-0.001 118.52-11.528 165.343-34.545z" />
<glyph unicode="&#xe930;" glyph-name="euro-condiciones" d="M519.754 886.858h-22.528c-12.037 0-21.795 9.76-21.795 21.795v0.733c0 27.954-22.662 50.614-50.616 50.614h-1.17c-27.954 0-50.614-22.66-50.614-50.614v-0.733c0-12.037-9.76-21.797-21.793-21.797h-22.528c-23.997 0-43.448-19.451-43.448-43.446v-0.878c0-23.995 19.451-43.446 43.448-43.446h191.051c23.994 0 43.445 19.453 43.445 43.446v0.88c-0.003 23.994-19.454 43.446-43.451 43.446zM424.229 886.858c-12.119 0-21.942 9.825-21.942 21.942 0 12.119 9.825 21.944 21.942 21.944 12.119 0 21.942-9.825 21.942-21.944s-9.823-21.942-21.942-21.942zM521.92 38.4h-368.32c-32.316 0-58.514 26.197-58.514 58.514v702.173c0 32.316 26.196 58.514 43.885 58.514h118.553c-0.991-4.859-1.523-9.895-1.523-15.072 0-40.087 32.614-72.701 72.707-72.701h191.043c40.095 0 72.706 32.614 72.706 73.586 0 4.857-0.522 9.592-1.431 14.187h89.203c46.948 0 73.144-26.197 73.144-58.514v-439.599c-4.862 0.305-9.69 0.74-14.627 0.74-20.236 0-39.774-2.851-58.517-7.703v344.163h-512v-585.144h337.196c1.603-25.712 7.222-50.323 16.494-73.142zM738.744 316.342c-105.029 0-190.17-85.146-190.17-190.171 0-105.029 85.141-190.171 190.17-190.171s190.17 85.144 190.17 190.171c0 105.027-85.143 190.171-190.17 190.171zM863.006 165.244l-117.027-131.658c-5.764-6.487-13.794-9.813-21.879-9.813-6.422 0-12.879 2.1-18.265 6.413l-73.144 58.514c-12.614 10.086-14.664 28.501-4.564 41.116 10.084 12.628 28.506 14.674 41.121 4.57l51.448-41.159 98.578 110.9c10.722 12.072 29.222 13.171 41.301 2.428 12.084-10.74 13.168-29.226 2.431-41.31zM541.475 604.826l-14.11-66.247c-13.556 13.55-33.327 20.328-59.313 20.328-25.992 0-47.037-9.326-63.14-27.983-9.087-10.523-15.546-23.676-19.372-39.461h131.54l-7.655-37.071h-128.669c-0.162-3.669-0.239-8.369-0.239-14.11 0-5.583 0.157-11.403 0.479-17.46h121.734l-7.653-37.070h-109.058c3.984-17.063 10.123-30.456 18.417-40.18 15.942-18.815 36.672-28.22 62.183-28.22 30.611 0 55.010 9.405 73.183 28.22v-73.183c-20.729-10.362-44.884-15.546-72.465-15.546-46.559 0-84.826 15.941-114.8 47.832-20.411 21.683-33.882 48.709-40.418 81.077h-35.397l7.653 37.070h23.438c-0.161 3.827-0.239 7.892-0.239 12.199 0 7.33 0.157 13.787 0.479 19.371h-31.331l7.653 37.070h28.46c6.698 31.726 20.008 58.274 39.941 79.641 30.134 32.204 69.752 48.31 118.863 48.31 26.79 0.002 50.066-4.864 69.838-14.587z" />
<glyph unicode="&#xe931;" glyph-name="examen" d="M298.821 463.968c0-7.359-5.965-13.298-13.326-13.298h-57.722c-7.336 0-13.3 5.927-13.3 13.298v57.72c0 7.364 5.965 13.328 13.3 13.328h57.722c7.36 0 13.326-5.965 13.326-13.328v-57.72zM298.821 584.524c0-7.359-5.965-13.298-13.326-13.298h-57.722c-7.336 0-13.3 5.927-13.3 13.298v57.722c0 7.364 5.965 13.328 13.3 13.328h57.722c7.36 0 13.326-5.965 13.326-13.328v-57.722zM298.821 343.401c0-7.359-5.965-13.298-13.326-13.298h-57.722c-7.336 0-13.3 5.927-13.3 13.298v57.722c0 7.364 5.965 13.328 13.3 13.328h57.722c7.36 0 13.326-5.965 13.326-13.328v-57.722zM298.821 222.845c0-7.359-5.965-13.298-13.326-13.298h-57.722c-7.336 0-13.3 5.927-13.3 13.298v57.722c0 7.364 5.965 13.328 13.3 13.328h57.722c7.36 0 13.326-5.965 13.326-13.328v-57.722zM366.826 496.041v0c0-13.57 11.103-24.85 24.851-24.85h260.675c13.571 0 24.853 11.103 24.853 24.85v0c0 13.572-11.106 24.851-24.853 24.851h-260.675c-13.748 0-24.851-11.28-24.851-24.851zM366.826 619.392v0c0-13.57 11.103-24.85 24.851-24.85h260.675c13.571 0 24.853 11.103 24.853 24.85v0c0 13.571-11.106 24.851-24.853 24.851h-260.675c-13.748-0.001-24.851-11.28-24.851-24.851zM652.184 397.549h-260.498c-13.571 0-24.851-11.103-24.851-24.853v0c0-13.569 11.103-24.851 24.851-24.851h260.675c13.571 0 24.853 11.103 24.853 24.851v0c-0.179 13.751-11.281 24.853-25.030 24.853zM942.737 352.864c-12.524-12.558-32.844-12.558-45.364 0l-65.618 65.57c-12.522 12.524-12.522 32.881 0 45.364l14.424 14.426c12.522 12.55 32.842 12.55 45.393 0l65.549-65.579c12.551-12.55 12.551-32.841 0-45.392l-14.394-14.388zM443.905-34.987l76.258 27.112-48.585 48.624zM877.68 333.157l-65.549 65.618c-8.733 8.754-21.276 11.386-32.324 7.92v302.064c0 6.343-1.406 12.695-3.875 18.685-2.467 5.822-6.164 11.28-10.747 15.686l-179.617 172.743c-4.405 4.229-9.519 7.582-15.164 9.874s-11.635 3.521-17.8 3.521h-344.788c-58.168 0-105.233-47.066-105.233-105.234v-640.573c0-58.169 47.066-105.234 105.233-105.234h277.252l18.096 49.533h-295.357c-30.671 0-55.522 25.027-55.522 55.524v640.573c0 30.672 24.851 55.522 55.522 55.522h329.102v-80.56c0-57.991 47.244-105.234 105.234-105.234h87.955v-331.447l-87.952-87.971h-250.46c-13.571 0-24.851-11.103-24.851-24.851 0-13.571 11.103-24.851 24.851-24.851h200.756l-83.406-83.416 110.972-110.97 48.135 48.146h6.434c58.168 0 105.231 47.065 105.231 105.234v6.459l97.873 97.896c12.552 12.522 12.552 32.842 0.001 45.325z" />
<glyph unicode="&#xe932;" glyph-name="ficha_hombre" d="M914.771 717.15c-2.969 6.999-7.423 13.574-12.938 18.877l-216.126 207.854c-5.302 5.090-11.453 9.12-18.24 11.877v0c-6.787 2.757-13.998 4.242-21.422 4.242h-414.86c-69.992 0-126.621-56.63-126.621-126.621v-770.757c0-69.992 56.63-126.621 126.621-126.621h561.63c69.992 0 126.621 56.63 126.621 126.621v632.046c0 7.635-1.697 15.271-4.666 22.482zM859.626 62.409c0-36.905-30.118-66.81-66.81-66.81h-561.63c-36.905 0-66.81 30.118-66.81 66.81v770.757c0 36.905 29.906 66.81 66.81 66.81h395.983v-96.928c0-69.78 56.842-126.621 126.621-126.621h105.836v-614.018zM233.306 447.788v0c0-16.331 13.362-29.906 29.906-29.906h502.88c16.331 0 29.906 13.362 29.906 29.906v0c0 16.331-13.362 29.906-29.906 29.906h-502.88c-16.543 0-29.906-13.574-29.906-29.906zM765.879 358.283h-502.668c-16.331 0-29.906-13.362-29.906-29.906v0c0-16.331 13.362-29.906 29.906-29.906h502.88c16.331 0 29.906 13.362 29.906 29.906v0c-0.212 16.543-13.574 29.906-30.118 29.906zM765.879 238.873h-502.668c-16.331 0-29.906-13.362-29.906-29.906v0c0-16.331 13.362-29.906 29.906-29.906h502.88c16.331 0 29.906 13.362 29.906 29.906v0c-0.212 16.543-13.574 29.906-30.118 29.906zM541.057 119.675h-280.391c-16.331 0-29.906-13.362-29.906-29.906s13.362-29.906 29.906-29.906h280.603c16.331 0 29.906 13.362 29.906 29.906s-13.574 29.906-30.118 29.906zM365.229 533.051h131.287c-0.636 54.509 1.485 83.778-33.935 96.716-32.239 12.302-51.327 24.815-51.327 24.815l-24.815-78.263-3.394-10.605-11.029 31.39c25.452 35.632-1.909 37.329-6.787 37.329v0 0 0 0 0 0c-4.666 0-32.239-1.697-6.787-37.329l-11.029-31.39-3.394 10.605-25.027 78.263c0 0-19.301-12.514-51.327-24.815-35.42-12.938-33.299-41.995-33.935-96.716h131.5zM309.236 704.212c2.757-18.452 16.968-41.783 40.298-50.055 9.544-3.394 20.149-3.394 29.693 0 22.906 8.272 37.541 31.602 40.51 50.055 3.181 0.212 7.211 4.666 11.453 20.149 5.939 21.21-0.424 24.391-5.727 23.755 1.060 2.969 1.909 5.727 2.333 8.696 9.12 54.721-17.816 56.63-17.816 56.63s-4.454 8.696-16.331 15.059c-7.848 4.666-18.877 8.272-33.299 6.999-4.666-0.212-9.12-1.060-13.362-2.545v0c-5.302-1.697-10.181-4.454-14.635-7.423-5.514-3.394-10.605-7.635-15.059-12.514-7.211-7.211-13.574-16.756-16.331-28.633-2.333-8.908-1.697-18.028 0.212-27.785v0c0.424-2.969 1.273-5.727 2.333-8.696-5.302 0.424-11.665-2.545-5.727-23.755 4.454-15.271 8.484-19.725 11.453-19.937z" />
<glyph unicode="&#xe933;" glyph-name="ficha_mujer" d="M914.771 717.15c-2.969 6.999-7.423 13.574-12.938 18.877l-216.126 207.854c-5.302 5.090-11.453 9.12-18.24 11.877v0c-6.787 2.757-13.998 4.242-21.422 4.242h-414.86c-69.992 0-126.621-56.63-126.621-126.621v-770.757c0-69.992 56.63-126.621 126.621-126.621h561.63c69.992 0 126.621 56.63 126.621 126.621v632.046c0 7.635-1.697 15.271-4.666 22.482zM859.626 62.409c0-36.905-30.118-66.81-66.81-66.81h-561.63c-36.905 0-66.81 30.118-66.81 66.81v770.757c0 36.905 29.906 66.81 66.81 66.81h395.983v-96.928c0-69.78 56.842-126.621 126.621-126.621h105.836v-614.018zM233.306 447.788v0c0-16.331 13.362-29.906 29.906-29.906h502.88c16.331 0 29.906 13.362 29.906 29.906v0c0 16.331-13.362 29.906-29.906 29.906h-502.88c-16.543 0-29.906-13.574-29.906-29.906zM765.879 358.283h-502.668c-16.331 0-29.906-13.362-29.906-29.906v0c0-16.331 13.362-29.906 29.906-29.906h502.88c16.331 0 29.906 13.362 29.906 29.906v0c-0.212 16.543-13.574 29.906-30.118 29.906zM765.879 238.873h-502.668c-16.331 0-29.906-13.362-29.906-29.906v0c0-16.331 13.362-29.906 29.906-29.906h502.88c16.331 0 29.906 13.362 29.906 29.906v0c-0.212 16.543-13.574 29.906-30.118 29.906zM541.057 119.675h-280.391c-16.331 0-29.906-13.362-29.906-29.906 0-16.331 13.362-29.906 29.906-29.906h280.603c16.331 0 29.906 13.362 29.906 29.906-0.212 16.331-13.574 29.906-30.118 29.906zM398.953 643.128v0 12.726c0 0 40.086-1.273 59.175 18.24 0 0-27.785 7.848-22.694 58.326 4.878 50.479-6.151 94.807-46.661 90.989 0 0-17.604 21.21-52.6 7.848-12.089-4.666-44.328-16.119-42.631-86.111s-24.815-70.416-24.815-70.416 13.574-19.937 60.023-19.513v-12.938l35.208-102.867 35.208 102.655-0.212 1.060zM238.82 532.626h250.061c2.969 0 5.090 2.545 4.666 5.514l-6.999 39.026c-2.333 12.726-10.393 23.543-22.058 29.269l-44.328 21.846c-2.545 1.273-5.090 2.545-7.423 4.030l13.998-41.359-19.513 1.485-43.056-53.024-43.056 53.024-19.513-1.485 14.21 41.359-8.908-4.454-43.268-21.422c-11.665-5.727-19.725-16.543-22.058-29.269l-6.999-39.026c-0.848-2.969 1.273-5.514 4.242-5.514z" />
<glyph unicode="&#xe934;" glyph-name="first-place" d="M890.716 588.434c24.199 8.534 38.119 34.409 31.35 59.61-0.952 3.546-1.949 7.081-2.99 10.592-7.399 25.002-32.733 39.775-57.845 34.429 20.792 15.015 26.832 43.752 13.24 66.012-1.914 3.134-3.863 6.238-5.861 9.318-14.153 21.873-42.636 28.895-65.169 16.711 15.705 20.252 13.424 49.504-5.861 67.043-2.712 2.465-5.455 4.894-8.227 7.294-19.731 17.053-49.073 15.789-67.282-2.261 9.432 23.867-0.977 51.344-24.442 62.764-3.303 1.607-6.63 3.174-9.987 4.701-23.748 10.81-51.587 1.314-63.964-21.194 2.306 25.568-15.457 48.988-41.198 53.308-3.615 0.605-7.26 1.165-10.909 1.681-25.816 3.655-49.742-13.285-55.301-38.287-5.003 25.121-28.568 42.562-54.453 39.507-3.65-0.431-7.289-0.912-10.904-1.433-25.806-3.729-44.084-26.698-42.398-52.281-11.881 22.707-39.418 32.803-63.384 22.573-3.397-1.448-6.759-2.946-10.106-4.483-23.673-10.88-34.692-38.059-25.865-62.104-17.812 18.417-47.094 20.306-67.192 3.699-2.812-2.326-5.603-4.686-8.361-7.086-19.677-17.103-22.607-46.306-7.339-66.905-22.29 12.734-50.967 6.332-65.605-15.273-2.043-3.015-4.051-6.055-6.025-9.124-14.123-21.958-8.723-50.863 11.762-66.349-25.002 5.956-50.709-8.271-58.668-33.13-1.121-3.491-2.192-7.002-3.223-10.533-7.304-25.027 6.020-51.18 29.996-60.255-25.593-1.398-46.201-22.29-46.811-48.349-0.084-3.481-0.124-6.972-0.124-10.473v-0.422c0-26.237 20.376-47.521 46.177-49.266-24.487-8.306-38.674-34.29-31.945-59.655 0.947-3.575 1.949-7.136 2.99-10.671 7.369-25.017 32.708-39.834 57.815-34.504-20.827-15.010-26.887-43.772-13.285-66.047 1.899-3.109 3.828-6.199 5.807-9.253 14.123-21.908 42.586-28.965 65.159-16.81-15.715-20.217-13.488-49.445 5.747-67.009 2.727-2.489 5.484-4.939 8.276-7.354 7.022-6.075 15.268-9.784 23.793-11.286l-52.752-175.86c-1.889-6.303-1.2-13.091 1.919-18.878 3.119-5.792 8.405-10.106 14.708-11.99l207.041-62.095c2.375-0.714 4.775-1.051 7.131-1.051 10.662 0 20.52 6.937 23.738 17.678l52.112 173.763 52.112-173.763c3.218-10.741 13.076-17.678 23.738-17.678 2.36 0 4.756 0.337 7.131 1.051l207.041 62.095c6.303 1.889 11.589 6.199 14.708 11.99 3.119 5.787 3.808 12.581 1.919 18.878l-51.602 172.047c5.157 1.874 10.101 4.592 14.579 8.276 2.841 2.341 5.653 4.711 8.425 7.121 19.677 17.083 22.627 46.271 7.399 66.875 22.23-12.724 50.883-6.402 65.561 15.134 2.078 3.050 4.111 6.119 6.104 9.218 14.123 21.938 8.752 50.828-11.703 66.324 25.007-5.98 50.749 8.232 58.723 33.105 1.116 3.471 2.187 6.962 3.218 10.473 7.339 25.022-5.956 51.205-29.937 60.309 25.578 1.369 46.211 22.211 46.876 48.254 0.094 3.655 0.139 7.319 0.139 10.989v0.838c0.005 26.093-20.138 47.476-45.716 49.45zM512.005 207.715c-182.203 0-330.442 148.235-330.442 330.437s148.239 330.437 330.442 330.437 330.437-148.235 330.437-330.437-148.235-330.437-330.437-330.437zM512.005 819c-154.86 0-280.854-125.989-280.854-280.849s125.989-280.849 280.854-280.849 280.849 125.989 280.849 280.849c-0.005 154.86-125.989 280.849-280.849 280.849zM583.313 364.111h-142.621c-13.696 0-24.794 11.103-24.794 24.794s11.098 24.794 24.794 24.794h50.679v213.84l-33.155-33.155c-9.675-9.68-25.384-9.68-35.059 0-9.685 9.685-9.685 25.384 0 35.064l75.478 75.478c7.091 7.091 17.768 9.204 27.016 5.375 9.268-3.838 15.308-12.878 15.308-22.91v-273.698h42.348c13.696 0 24.794-11.103 24.794-24.794s-11.098-24.789-24.789-24.789z" />
<glyph unicode="&#xe935;" glyph-name="formacion-presencial" d="M918.63 874.803h-438.579c-10.915 0-19.763-8.848-19.763-19.763v0-154.317l21.914 13.517c5.059 3.189 10.954 5.635 17.251 7l0.362 0.066v113.869h399.36v-285.491h-399.36v46.182l-39.629-24.986v-40.96c0-10.915 8.848-19.763 19.763-19.763h438.682c10.915 0 19.763 8.848 19.763 19.763v0 325.018c0 0.030 0 0.066 0 0.102 0 10.915-8.848 19.763-19.763 19.763 0 0 0 0 0 0v0zM630.886 764.928c-2.819 3.554-7.137 5.814-11.984 5.814-3.569 0-6.851-1.225-9.45-3.278l0.032 0.024-68.198-53.76c6.736-4.447 12.288-10.13 16.455-16.77l0.134-0.228c1.074-1.702 2.167-3.717 3.135-5.802l0.142-0.342 67.174 52.941c3.554 2.819 5.814 7.137 5.814 11.984 0 3.569-1.225 6.851-3.278 9.45l0.024-0.032zM358.707 847.667c0-31.444-25.49-56.934-56.934-56.934s-56.934 25.49-56.934 56.934c0 31.444 25.49 56.934 56.934 56.934s56.934-25.49 56.934-56.934zM534.528 682.189c-4.921 7.847-13.524 12.988-23.327 12.988-5.396 0-10.429-1.558-14.673-4.248l0.112 0.066-55.706-34.611c0 46.182 0 21.709 0 51.2-0.289 35.733-29.266 64.602-65.013 64.717h-27.761c-23.142-59.904-15.667-37.683-35.226-88.576l8.294 35.942c0.164 0.728 0.259 1.564 0.259 2.421 0 2.002-0.513 3.885-1.415 5.523l0.030-0.059-11.162 20.48 10.24 18.022c0.319 0.561 0.507 1.232 0.507 1.947 0 2.206-1.788 3.994-3.994 3.994-0.034 0-0.068 0-0.102-0.001h-27.131c-0.029 0.001-0.063 0.001-0.097 0.001-2.206 0-3.994-1.788-3.994-3.994 0-0.715 0.188-1.386 0.517-1.967l-0.010 0.020 10.24-18.022-11.162-20.48c-0.909-1.605-1.444-3.526-1.444-5.571 0-0.782 0.078-1.546 0.228-2.285l-0.012 0.074 7.168-35.942-34.406 88.781h-27.648c-35.758-0.115-64.735-28.984-65.024-64.689v-0.028l-1.024-201.933c0.116-15.033 12.3-27.181 27.335-27.238h0.006c0 0 0 0 0 0 15.12 0 27.385 12.228 27.443 27.335v0.006l1.024 201.933c0 2.997 2.43 5.427 5.427 5.427s5.427-2.43 5.427-5.427v0-286.515c1.154 0.052 2.508 0.081 3.869 0.081 23.947 0 45.761-9.133 62.148-24.107l-0.071 0.064v111.923h14.234v-128c9.921-14.481 15.843-32.381 15.843-51.664 0-17.613-4.941-34.072-13.512-48.067l0.229 0.403c8.963-0.020 17.638-1.215 25.891-3.437l-0.701 0.161c10.565 9.219 23.406 16.111 37.557 19.727l0.638 0.138c0 498.278-0.614 190.259-0.614 409.6 0 3.167 2.567 5.734 5.734 5.734s5.734-2.567 5.734-5.734v0-100.557c0.017-15.144 12.297-27.414 27.443-27.414 5.388 0 10.414 1.553 14.653 4.235l-0.113-0.067 97.382 60.518c8.051 4.88 13.349 13.595 13.349 23.547 0 5.013-1.344 9.711-3.691 13.755l0.070-0.131zM603.136 207.258c-0.001 0.186-0.002 0.405-0.002 0.625 0 15.371 3.788 29.858 10.482 42.576l-0.24-0.501h-133.939c6.063-11.948 9.615-26.051 9.615-40.984 0-17.625-4.948-34.095-13.53-48.096l0.229 0.402c28.15-0.182 53.525-11.914 71.652-30.691l0.028-0.029c17.854 17.539 42.304 28.415 69.295 28.569h0.030c-8.535 13.695-13.602 30.318-13.619 48.123v0.005zM557.363 389.734c-33.31 0-60.314-27.003-60.314-60.314s27.003-60.314 60.314-60.314c33.31 0 60.314 27.003 60.314 60.314v0c0 33.31-27.003 60.314-60.314 60.314v0zM304.742 208.896c0 0.029 0 0.063 0 0.098 0 14.893 3.556 28.955 9.866 41.383l-0.24-0.521c-2.56 0 8.294 0-159.642 0-37.708-0.112-68.294-30.447-68.812-68.047l-0.001-0.049v-68.096h57.446v67.891c0 3.365 2.728 6.093 6.093 6.093s6.093-2.728 6.093-6.093v0-67.789h81.92c17.237 27.317 46.677 45.574 80.475 47.096l0.216 0.008c-8.423 13.576-13.415 30.045-13.415 47.681 0 0.121 0 0.242 0.001 0.363v-0.019zM232.653 389.734c-33.31 0-60.314-27.003-60.314-60.314s27.003-60.314 60.314-60.314c33.31 0 60.314 27.003 60.314 60.314v0c0 33.31-27.003 60.314-60.314 60.314v0zM838.758 59.494c-0.289 37.825-30.963 68.391-68.802 68.506h-152.587c-0.041 0-0.090 0-0.138 0-38.287 0-69.471-30.408-70.72-68.391l-0.003-0.115v1.638c-0.347 37.853-31.113 68.404-69.015 68.404-0.109 0-0.218 0-0.327-0.001h-152.559c-0.041 0-0.090 0-0.138 0-38.287 0-69.471-30.408-70.72-68.391l-0.003-0.115v-69.734h58.163v69.427c0.497 2.408 2.6 4.193 5.12 4.193s4.623-1.785 5.114-4.159l0.006-0.034v-69.427h154.419v69.427c0 3.11 2.522 5.632 5.632 5.632s5.632-2.522 5.632-5.632v0-69.427h116.326v67.891c0.497 2.408 2.6 4.193 5.12 4.193s4.623-1.785 5.114-4.159l0.006-0.034v-67.891h154.931v67.584c0 3.11 2.522 5.632 5.632 5.632s5.632-2.522 5.632-5.632v0-67.891h58.163zM459.878 209.101c0-33.706-27.324-61.030-61.030-61.030s-61.030 27.324-61.030 61.030c0 33.706 27.324 61.030 61.030 61.030s61.030-27.324 61.030-61.030zM756.224 207.462c0-33.706-27.324-61.030-61.030-61.030s-61.030 27.324-61.030 61.030c0 33.706 27.324 61.030 61.030 61.030s61.030-27.324 61.030-61.030z" />
<glyph unicode="&#xe936;" glyph-name="geolocalization" d="M615.531 146.274c-33.752 7.461-68.445 11.325-103.53 11.325s-69.778-3.864-103.53-11.325c4.482-17.636 9.372-34.492 14.681-50.418 31.284-93.858 67.416-127.159 88.851-127.159s57.564 33.303 88.851 127.159c5.303 15.924 10.195 32.782 14.677 50.418zM394.279 212.434c38.383 8.452 77.83 12.83 117.719 12.83s79.337-4.378 117.719-12.83c11.007 61.73 17.541 130.202 19.111 201.732h-273.662c1.57-71.53 8.104-140 19.111-201.732zM408.469 749.728c33.752-7.461 68.445-11.325 103.53-11.325 29.006 0 57.882 2.614 86.205 7.755-0.456 5.968-0.71 11.977-0.71 18.031 0 12.602 1.031 24.964 2.984 37.023-31.12 92.863-66.882 126.094-88.476 126.094-21.435 0-57.564-33.303-88.851-127.159-5.31-15.926-10.2-32.784-14.681-50.418zM669.287 727.606l1.522-6.115c5.682-20.999 15.575-40.699 29.453-58.247l127.966-160.893 128.030 160.965c22.905 28.966 35.045 63.87 35.045 100.868 0 89.918-73.157 163.072-163.074 163.072s-163.072-73.154-163.072-163.072c0.002-12.48 1.416-24.716 4.13-36.578zM828.232 809.298c24.874 0 45.111-20.237 45.111-45.111s-20.237-45.111-45.111-45.111-45.111 20.237-45.111 45.111 20.237 45.111 45.111 45.111zM758.091 481.834l-43.753 55.011c1.031-18.153 1.75-36.495 2.143-55.011h41.61zM673.51 935.187c-25.562 8.47-52.020 14.963-79.186 19.344 14.14-15.132 28.316-35.432 41.946-62.463 10.606 15.87 23.137 30.346 37.239 43.119zM613.269 680.115c-33.258-6.225-67.195-9.381-101.27-9.381-39.892 0-79.337 4.378-117.719 12.83-11.007-61.732-17.541-130.202-19.111-201.732h273.628c-1.164 52.861-5.064 104.209-11.643 153.179-9.697 14.26-17.695 29.349-23.884 45.104zM695.046 193.744c65.203-23.153 125.936-58.662 178.705-105.23l2.348-2.071c84.687 85.28 139.594 200.144 147.901 327.725h-307.493c-1.651-78.033-9.004-152.935-21.462-220.424zM665.045 74.457c-21.696-65.088-46.286-106.821-70.739-132.994 85.86 13.845 164.579 48.986 230.583 99.842-43.081 37.165-92.024 66.056-144.45 85.736-4.71-18.34-9.839-35.917-15.394-52.584zM1024 481.834c-2.874 44.085-11.303 86.649-24.615 126.999l-101.013-126.999h125.627zM328.952 702.256c-65.203 23.153-125.936 58.662-178.705 105.23l-2.348 2.071c-84.685-85.278-139.592-200.142-147.899-327.723h307.49c1.653 78.031 9.006 152.933 21.462 220.421zM358.955 821.543c21.696 65.088 46.286 106.821 70.739 132.994-85.862-13.847-164.581-48.986-230.585-99.842 43.081-37.165 92.024-66.056 144.45-85.736 4.712 18.342 9.841 35.92 15.396 52.584zM307.49 414.168h-307.49c8.307-127.581 63.214-242.445 147.901-327.725l2.348 2.071c52.769 46.568 113.502 82.075 178.705 105.23-12.46 67.488-19.811 142.391-21.464 220.424zM343.559 127.043c-52.426-19.68-101.369-48.571-144.45-85.736 66.004-50.856 144.723-85.997 230.583-99.842-24.45 26.171-49.042 67.906-70.739 132.994-5.553 16.664-10.682 34.242-15.394 52.584z" />
<glyph unicode="&#xe937;" glyph-name="globe" d="M512 886.857q119.429 0 220.286-58.857t159.714-159.714 58.857-220.286-58.857-220.286-159.714-159.714-220.286-58.857-220.286 58.857-159.714 159.714-58.857 220.286 58.857 220.286 159.714 159.714 220.286 58.857zM668.571 589.143q-1.143-0.571-5.429-5.429t-7.714-5.429q1.143 0 2.571 2.857t2.857 6.286 2 4q3.429 4 12.571 8.571 8 3.429 29.714 6.857 19.429 4.571 29.143-6.286-1.143 1.143 5.429 7.429t8.286 6.857q1.714 1.143 8.571 2.571t8.571 4.286l1.143 12.571q-6.857-0.571-10 4t-3.714 12q0-1.143-3.429-4.571 0 4-2.571 4.571t-6.571-0.571-5.143-0.571q-5.714 1.714-8.571 4.286t-4.571 9.429-2.286 8.571q-1.143 2.857-5.429 6t-5.429 6q-0.571 1.143-1.429 3.143t-1.714 3.714-2.286 3.143-3.143 1.429-4-2.857-4.286-5.714-2.571-2.857q-1.714 1.143-3.429 0.857t-2.571-0.571-2.571-1.714-2.857-2q-1.714-1.143-4.857-1.714t-4.857-1.143q8.571 2.857-0.571 6.286-5.714 2.286-9.143 1.714 5.143 2.286 4.286 6.857t-4.857 8h2.857q-0.571 2.286-4.857 4.857t-10 4.857-7.429 3.429q-4.571 2.857-19.429 5.429t-18.857 0.286q-2.857-3.429-2.571-6t2.286-8 2-7.143q0.571-3.429-3.143-7.429t-3.714-6.857q0-4 8-8.857t5.714-12.286q-1.714-4.571-9.143-9.143t-9.143-6.857q-2.857-4.571-0.857-10.571t6-9.429q1.143-1.143 0.857-2.286t-2-2.571-3.143-2.286-3.714-2l-1.714-1.143q-6.286-2.857-11.714 3.429t-7.714 14.857q-4 14.286-9.143 17.143-13.143 4.571-16.571-0.571-2.857 7.429-23.429 14.857-14.286 5.143-33.143 2.286 3.429 0.571 0 8.571-4 8.571-10.857 6.857 1.714 3.429 2.286 10t0.571 7.714q1.714 7.429 6.857 13.143 0.571 0.571 4 4.857t5.429 7.714 0.286 3.429q20-2.286 28.571 6.286 2.857 2.857 6.571 9.714t6 9.714q5.143 3.429 8 3.143t8.286-3.143 8.286-2.857q8-0.571 8.857 6.286t-4.286 11.429q6.857-0.571 1.714 9.714-2.857 4-4.571 5.143-6.857 2.286-15.429-2.857-4.571-2.286 1.143-4.571-0.571 0.571-5.429-6t-9.429-10-9.143 2.857q-0.571 0.571-3.143 7.714t-5.429 7.714q-4.571 0-9.143-8.571 1.714 4.571-6.286 8.571t-13.714 4.571q10.857 6.857-4.571 15.429-4 2.286-11.714 2.857t-11.143-2.286q-2.857-4-3.143-6.571t2.857-4.571 6-3.143 6.571-2.286 4.857-1.714q8-5.714 4.571-8-1.143-0.571-4.857-2t-6.571-2.571-3.429-2.286q-1.714-2.286 0-8t-1.143-8q-2.857 2.857-5.143 10t-4 9.429q4-5.143-14.286-3.429l-5.714 0.571q-2.286 0-9.143-1.143t-11.714-0.571-7.714 4.571q-2.286 4.571 0 11.429 0.571 2.286 2.286 1.143-2.286 1.714-6.286 5.429t-5.714 4.857q-26.286-8.571-53.714-23.429 3.429-0.571 6.857 0.571 2.857 1.143 7.429 3.714t5.714 3.143q19.429 8 24 4l2.857 2.857q8-9.143 11.429-14.286-4 2.286-17.143 0.571-11.429-3.429-12.571-6.857 4-6.857 2.857-10.286-2.286 1.714-6.571 5.714t-8.286 6.286-8.571 2.857q-9.143 0-12.571-0.571-83.429-45.714-134.286-126.857 4-4 6.857-4.571 2.286-0.571 2.857-5.143t1.429-6.286 6.571 1.714q5.143-4.571 1.714-10.857 0.571 0.571 25.143-15.429 10.857-9.714 12-12 1.714-6.286-5.714-10.286-0.571 1.143-5.143 5.143t-5.143 2.286q-1.714-2.857 0.286-10.571t6-7.143q-4 0-5.429-9.143t-1.429-20.286-0.571-13.429l1.143-0.571q-1.714-6.857 3.143-19.714t12.286-11.143q-7.429-1.714 11.429-24.571 3.429-4.571 4.571-5.143 1.714-1.143 6.857-4.286t8.571-5.714 5.714-6q2.286-2.857 5.714-12.857t8-13.429q-1.143-3.429 5.429-11.429t6-13.143q-0.571 0-1.429-0.571t-1.429-0.571q1.714-4 8.857-8t8.857-7.429q0.571-1.714 1.143-5.714t1.714-6.286 4.571-1.143q1.143 11.429-13.714 35.429-8.571 14.286-9.714 16.571-1.714 2.857-3.143 8.857t-2.571 8.286q1.143 0 3.429-0.857t4.857-2 4.286-2.286 1.143-1.714q-1.714-4 1.143-10t6.857-10.571 9.714-10.857 6.857-7.429q3.429-3.429 8-11.143t0-7.714q5.143 0 11.429-5.714t9.714-11.429q2.857-4.571 4.571-14.857t2.857-13.714q1.143-4 4.857-7.714t7.143-5.429l9.143-4.571 7.429-4q2.857-1.143 10.571-6t12.286-6.571q5.714-2.286 9.143-2.286t8.286 1.429 7.714 2q8.571 1.143 16.571-8.571t12-12q20.571-10.857 31.429-6.286-1.143-0.571 0.286-4.286t4.571-8.857 5.143-8.286 3.143-4.857q2.857-3.429 10.286-8.571t10.286-8.571q3.429 2.286 4 5.143-1.714-4.571 4-11.429t10.286-5.714q8 1.714 8 18.286-17.714-8.571-28 10.286 0 0.571-1.429 3.143t-2.286 4.857-1.429 4.857 0 4.286 2.857 1.714q5.143 0 5.714 2t-1.143 7.143-2.286 7.429q-0.571 4.571-6.286 11.429t-6.857 8.571q-2.857-5.143-9.143-4.571t-9.143 5.143q0-0.571-0.857-3.143t-0.857-3.714q-7.429 0-8.571 0.571 0.571 1.714 1.429 10t2 12.857q0.571 2.286 3.143 6.857t4.286 8.286 2.286 7.143-2.571 5.429-10 1.429q-10.857-0.571-14.857-11.429-0.571-1.714-1.714-6t-2.857-6.571-5.143-4q-4-1.714-13.714-1.143t-13.714 2.857q-7.429 4.571-12.857 16.571t-5.429 21.143q0 5.714 1.429 15.143t1.714 14.286-3.143 14q1.714 1.143 5.143 5.429t5.714 6q1.143 0.571 2.571 0.857t2.571 0 2.286 0.857 1.714 3.429q-0.571 0.571-2.286 1.714-1.714 1.714-2.286 1.714 4-1.714 16.286 0.857t15.714-0.857q8.571-6.286 12.571 1.143 0 0.571-1.429 5.429t-0.286 7.714q2.857-15.429 16.571-5.143 1.714-1.714 8.857-2.857t10-2.857q1.714-1.143 4-3.143t3.143-2.571 2.857 0.286 4.857 3.714q5.714-8 6.857-13.714 6.286-22.857 10.857-25.143 4-1.714 6.286-1.143t2.571 5.429 0 8-0.857 7.143l-0.571 4.571v10.286l-0.571 4.571q-8.571 1.714-10.571 6.857t0.857 10.571 8.571 10.571q0.571 0.571 4.571 2t8.857 3.714 7.143 4.571q12 10.857 8.571 20 4 0 6.286 5.143-0.571 0-2.857 1.714t-4.286 2.857-2.571 1.143q5.143 2.857 1.143 9.143 2.857 1.714 4.286 6.286t4.286 5.714q5.143-6.857 12-1.143 4 4.571 0.571 9.143 2.857 4 11.714 6t10.571 5.429q4-1.143 4.571 1.143t0.571 6.857 1.714 6.857q2.286 2.857 8.571 5.143t7.429 2.857l9.714 6.286q1.714 2.286 0 2.286 10.286-1.143 17.714 6.286 5.714 6.286-3.429 11.429 1.714 3.429-1.714 5.429t-8.571 3.143q1.714 0.571 6.571 0.286t6 0.857q8.571 5.714-4 9.143-9.714 2.857-24.571-6.857zM575.429 88q117.714 20.571 200.571 108-1.714 1.714-7.143 2.571t-7.143 2q-10.286 4-13.714 4.571 0.571 4-1.429 7.429t-4.571 5.143-7.143 4.571-6.286 4q-1.143 1.143-4 3.429t-4 3.143-4.286 2.571-4.857 1.143-5.714-0.571l-1.714-0.571q-1.714-0.571-3.143-1.429t-3.143-1.714-2.286-1.714 0-1.429q-12 9.714-20.571 12.571-2.857 0.571-6.286 3.143t-6 4-5.714 0.857-6.571-4q-2.857-2.857-3.429-8.571t-1.143-7.429q-4 2.857 0 10t1.143 10.571q-1.714 3.429-6 2.571t-6.857-2.571-6.571-4.857-5.143-3.714-4.857-3.143-4.857-4.286q-1.714-2.286-3.429-6.857t-2.857-6.286q-1.143 2.286-6.571 3.714t-5.429 3.143q1.143-5.714 2.286-20t2.857-21.714q4-17.714-6.857-27.429-15.429-14.286-16.571-22.857-2.286-12.571 6.857-14.857 0-4-4.571-11.714t-4-12.286q0-3.429 1.143-9.143z" />
<glyph unicode="&#xe938;" glyph-name="gps_situacion" d="M512 634.182c-102.4 0-186.182-83.782-186.182-186.182s83.782-186.182 186.182-186.182c102.4 0 186.182 83.782 186.182 186.182s-83.782 186.182-186.182 186.182zM926.255 494.545c-23.273 195.491-176.873 349.091-367.709 367.709v97.745h-93.091v-97.745c-195.491-18.618-349.091-172.218-367.709-367.709h-97.745v-93.091h97.745c23.273-195.491 176.873-349.091 367.709-367.709v-97.745h93.091v97.745c195.491 23.273 349.091 176.873 367.709 367.709h97.745v93.091h-97.745zM512 122.182c-181.527 0-325.818 144.291-325.818 325.818s144.291 325.818 325.818 325.818 325.818-144.291 325.818-325.818-144.291-325.818-325.818-325.818z" />
<glyph unicode="&#xe939;" glyph-name="grupo" d="M219.429 301.714c0 73.143 0 365.714 0 365.714s0.183 16.457 8.741 36.571c-76.032 0-155.026 0-155.026 0s-73.143 0-73.143-73.143v-256c0-73.143 73.143-73.143 73.143-73.143v-365.714h219.429v292.571c0 0-73.143 0-73.143 73.143zM219.429 740.571c19.017 0 36.608 5.266 52.187 13.751 2.158 1.317 4.571 2.487 6.875 3.767 30.391 19.493 50.651 53.394 50.651 92.197 0 60.599-49.115 109.714-109.714 109.714s-109.714-49.115-109.714-109.714 49.115-109.714 109.714-109.714zM950.857 704h-154.99c8.521-20.114 8.704-36.571 8.704-36.571s0-292.571 0-365.714-73.143-73.143-73.143-73.143v-292.571h219.429v365.714c0 0 73.143 0 73.143 73.143s0 256 0 256 0 73.143-73.143 73.143zM745.326 758.162c2.377-1.28 4.901-2.487 7.095-3.84 15.579-8.485 33.134-13.751 52.151-13.751 60.599 0 109.714 49.115 109.714 109.714s-49.115 109.714-109.714 109.714-109.714-49.115-109.714-109.714c0-38.729 20.187-72.594 50.469-92.123zM621.714 850.286c0-60.594-49.121-109.714-109.714-109.714s-109.714 49.121-109.714 109.714c0 60.594 49.121 109.714 109.714 109.714s109.714-49.121 109.714-109.714zM731.429 630.857c0 0 0 73.143-73.143 73.143-18.286 0-292.571 0-292.571 0s-73.143 0-73.143-73.143v-256c0-73.143 73.143-73.143 73.143-73.143v-365.714h292.571v365.714c0 0 73.143 0 73.143 73.143s0 256 0 256z" />
<glyph unicode="&#xe93a;" glyph-name="hombre_corbata" d="M512.034 555.861c111.423 0 202.069 90.646 202.069 202.069s-90.646 202.069-202.069 202.069c-111.423 0-202.069-90.646-202.069-202.069s90.646-202.069 202.069-202.069zM783.184 457.937c-0.086 0.028-0.252 0.090-0.338 0.11-26.31 6.427-106.879 17.698-106.879 17.698-9.095 2.8-18.815-2.017-22.087-10.992l-121.273-332.745c-6.996-19.194-34.144-19.194-41.139 0l-121.273 332.745c-2.641 7.247-9.481 11.792-16.812 11.792-1.738 0-84.578-11.616-112.157-18.473-75.362-18.739-122.897-92.846-122.897-170.077v-276.866c0-41.491 33.637-75.128 75.128-75.128h637.093c41.491 0 75.128 33.637 75.128 75.128v277.787c-0.003 76.897-49.4 145.139-122.494 169.022zM557.77 482.089c-4.841 5.275-11.916 7.927-19.073 7.927h-53.389c-7.158 0-14.236-2.655-19.073-7.927-7.492-8.164-8.582-19.959-3.262-29.175l28.541-43.025-13.36-112.709 26.31-69.991c2.565-7.040 12.519-7.040 15.084 0l26.31 69.991-13.36 112.709 28.541 43.025c5.313 9.216 4.224 21.011-3.269 29.175z" />
<glyph unicode="&#xe93b;" glyph-name="home" d="M512.001 690.953l-365.205-301.073c0-0.425-0.107-1.050-0.32-1.902-0.209-0.845-0.32-1.459-0.32-1.895v-304.868c0-11.008 4.024-20.547 12.071-28.58 8.044-8.038 17.57-12.082 28.58-12.082h243.888v243.902h162.615v-243.911h243.886c11.008 0 20.547 4.036 28.58 12.091 8.047 8.024 12.084 17.57 12.084 28.58v304.868c0 1.691-0.231 2.968-0.641 3.797l-365.219 301.073zM1016.937 458.479l-139.090 115.597v259.143c0 5.924-1.904 10.796-5.726 14.609-3.791 3.809-8.663 5.713-14.6 5.713h-121.946c-5.931 0-10.801-1.904-14.616-5.713-3.806-3.813-5.708-8.687-5.708-14.609v-123.853l-154.974 129.575c-13.535 11.010-29.628 16.514-48.262 16.514-18.631 0-34.722-5.504-48.27-16.514l-456.687-380.462c-4.234-3.381-6.554-7.933-6.985-13.65-0.429-5.713 1.050-10.703 4.443-14.934l39.379-47.002c3.393-3.809 7.833-6.138 13.339-6.99 5.083-0.427 10.167 1.059 15.25 4.445l439.52 366.493 439.524-366.491c3.395-2.954 7.833-4.429 13.339-4.429h1.909c5.497 0.836 9.929 3.181 13.339 6.981l39.383 46.996c3.386 4.24 4.87 9.221 4.429 14.941-0.434 5.702-2.763 10.253-6.988 13.642z" />
<glyph unicode="&#xe93c;" glyph-name="house-plan" d="M891.993 650.774c1.971 6.309 1.183 16.001-13.76 26.35l-394.648 273.284c-8.932 6.185-20.629 9.592-32.932 9.592-12.305 0-23.999-3.407-32.934-9.592l-150.954-104.533v42.331c0 12.074-9.825 21.899-21.899 21.899h-85.977c-12.074 0-21.899-9.825-21.899-21.899v-120.909c0-3.523 1.375-9.962-4.426-14.356l-109.489-75.818c-14.945-10.349-15.733-20.040-13.763-26.35s8.134-13.828 26.313-13.828h44.385c10.733 0 19.466-8.733 19.466-19.466v-433.164c0-24.15 19.649-43.799 43.799-43.799h614.755c24.15 0 43.799 19.649 43.799 43.799v433.164c0 10.733 8.733 19.466 19.466 19.466h44.385c18.179 0 24.342 7.521 26.313 13.828zM284.389 379.159c0-5.353-4.38-9.733-9.733-9.733h-95.831c-5.353 0-9.733 4.38-9.733 9.733v84.057c0 5.353 4.38 9.733 9.733 9.733h95.834c5.353 0 9.733-4.38 9.733-9.733v-84.057zM284.389 510.29c0-5.353-4.38-9.733-9.733-9.733h-95.831c-5.353 0-9.733 4.38-9.733 9.733v77.704c0 5.353 4.38 9.733 9.733 9.733h95.834c5.353 0 9.733-4.38 9.733-9.733v-77.704zM427.297 379.159c0-5.353-4.38-9.733-9.733-9.733h-95.834c-5.353 0-9.733 4.38-9.733 9.733v84.057c0 5.353 4.38 9.733 9.733 9.733h95.834c5.353 0 9.733-4.38 9.733-9.733v-84.057zM427.297 510.29c0-5.353-4.38-9.733-9.733-9.733h-95.834c-5.353 0-9.733 4.38-9.733 9.733v77.704c0 5.353 4.38 9.733 9.733 9.733h95.834c5.353 0 9.733-4.38 9.733-9.733v-77.704zM679.628 178.352c0-5.353-4.38-9.733-9.733-9.733h-143.158c-5.353 0-9.733 4.38-9.733 9.733v228.069c0 5.353 4.38 9.733 9.733 9.733h143.158c5.353 0 9.733-4.38 9.733-9.733v-228.069zM908.539 269.237c-7.884-5.129-10.117-15.68-4.986-23.566l18.996-29.197c4.523-6.949 11.806-11.083 19.51-11.083 0.056 0 0.114 0 0.17 0 7.767 0.063 15.059 4.321 19.503 11.397l18.529 29.496c5.005 7.964 2.604 18.478-5.363 23.483-5.122 3.219-11.295 3.358-16.383 0.939l-2.141 164.376c5.044-2.144 11.028-1.82 15.965 1.394 7.886 5.129 10.117 15.68 4.988 23.564l-18.996 29.199c-4.521 6.949-11.806 11.083-19.51 11.083-0.056 0-0.114-0.002-0.173-0.002-7.769-0.061-15.062-4.321-19.503-11.395l-18.529-29.496c-5.005-7.964-2.604-18.481 5.363-23.483 2.815-1.769 5.947-2.613 9.044-2.613 2.521 0 5.005 0.589 7.285 1.664l2.141-164.342c-5.032 2.117-10.991 1.784-15.911-1.419zM882.438 536.591c0.044 0 0.092 0 0.139 0l111.937 0.891c9.407 0.075 16.972 7.762 16.897 17.169-0.075 9.361-7.687 16.897-17.030 16.897-0.046 0-0.092 0-0.139 0l-111.937-0.891c-9.407-0.075-16.972-7.762-16.897-17.169 0.073-9.361 7.684-16.897 17.030-16.897zM998.441 169.118c-0.046 0-0.092 0-0.139 0l-111.937-0.891c-9.407-0.075-16.972-7.762-16.897-17.169 0.075-9.361 7.687-16.897 17.030-16.897 0.046 0 0.092 0 0.139 0l111.937 0.891c9.407 0.075 16.972 7.762 16.897 17.169-0.073 9.361-7.684 16.897-17.030 16.897zM734.737 32.325l-29.496 18.529c-7.962 5.005-18.481 2.604-23.483-5.363-3.156-5.025-3.36-11.059-1.088-16.089l-451.026-2.698c2.27 5.098 2.003 11.203-1.268 16.227-5.129 7.886-15.685 10.117-23.566 4.988l-29.199-18.999c-7-4.557-11.144-11.916-11.081-19.683 0.061-7.767 4.321-15.057 11.395-19.5l29.496-18.529c2.815-1.769 5.947-2.613 9.044-2.613 5.665 0 11.203 2.825 14.439 7.974 3.154 5.017 3.36 11.045 1.097 16.072l451.009 2.698c-2.26-5.093-1.988-11.188 1.277-16.208 3.263-5.017 8.723-7.745 14.293-7.745 3.185 0 6.407 0.893 9.273 2.759l29.194 18.996c7.003 4.555 11.149 11.913 11.086 19.683s-4.324 15.059-11.397 19.5zM799.442 86.066c-0.046 0-0.092 0-0.139 0-9.407-0.075-16.972-7.762-16.897-17.169l0.891-111.937c0.075-9.361 7.687-16.897 17.030-16.897 0.044 0 0.092 0 0.139 0 9.407 0.075 16.972 7.762 16.897 17.169l-0.891 111.937c-0.075 9.361-7.687 16.897-17.030 16.897zM110.339 82.003c-0.044 0-0.092 0-0.139 0-9.407-0.075-16.972-7.762-16.897-17.169l0.891-111.937c0.075-9.361 7.687-16.897 17.030-16.897 0.046 0 0.092 0 0.139 0 9.407 0.075 16.972 7.762 16.897 17.169l-0.891 111.937c-0.075 9.361-7.687 16.897-17.030 16.897z" />
<glyph unicode="&#xe93d;" glyph-name="ico_registros-formacion" d="M519.373 866.304h-21.504c-11.311 0-20.48 9.169-20.48 20.48v0 1.536c0 26.637-21.593 48.23-48.23 48.23h-1.434c-26.637 0-48.23-21.593-48.23-48.23v0-1.229c0-11.311-9.169-20.48-20.48-20.48v0h-21.504c-22.622 0-40.96-18.338-40.96-40.96v0-0.819c0-22.622 18.338-40.96 40.96-40.96v0h181.862c22.622 0 40.96 18.338 40.96 40.96v0 0.102c0.001 0.122 0.002 0.266 0.002 0.41 0 22.622-18.338 40.96-40.96 40.96-0.001 0-0.001 0-0.002 0v0zM428.339 866.304c-11.311 0-20.48 9.169-20.48 20.48s9.169 20.48 20.48 20.48c11.311 0 20.48-9.169 20.48-20.48v0c0-11.311-9.169-20.48-20.48-20.48v0zM521.421 57.344h-351.027c-30.822 0-55.808 24.986-55.808 55.808v669.491c0 30.72 24.986 55.808 41.882 55.808h112.64c-0.912-4.288-1.434-9.215-1.434-14.264 0-0.025 0-0.050 0-0.076v0.004c0.29-38.123 31.262-68.916 69.425-68.916 0.073 0 0.145 0 0.218 0h182.056c38.374 0.332 69.353 31.516 69.353 69.937 0 4.857-0.495 9.598-1.437 14.176l0.078-0.452h84.992c44.749 0 69.734-24.986 69.734-55.808v-419.43c-4.608 0-9.216 0.717-13.926 0.717-19.876-0.087-39.088-2.772-57.364-7.733l1.556 0.36v327.68h-488.038v-557.363h321.434c1.544-25.48 7.158-49.232 16.204-71.208l-0.537 1.474zM728.166 322.458c-100.1 0-181.248-81.148-181.248-181.248s81.147-181.248 181.248-181.248c99.956 0 181.014 80.914 181.247 180.816v0.022c0 0.122 0 0.266 0 0.41 0 100.101-81.147 181.248-181.248 181.248 0 0 0 0 0 0v0zM846.643 178.483l-111.616-125.542c-5.128-5.78-12.574-9.405-20.867-9.405-6.621 0-12.703 2.311-17.483 6.169l0.053-0.041-69.734 55.808c-6.399 5.15-10.458 12.981-10.458 21.76 0 15.39 12.476 27.866 27.866 27.866 6.611 0 12.684-2.302 17.462-6.148l-0.054 0.042 49.152-38.912 93.901 105.472c5.14 5.773 12.592 9.392 20.89 9.392 15.423 0 27.927-12.503 27.927-27.927 0-7.126-2.669-13.628-7.062-18.562l0.025 0.028zM602.624 448h-223.13c-7.691 0-13.926 6.235-13.926 13.926v0 13.926c0 7.691 6.235 13.926 13.926 13.926v0h223.13c7.691 0 13.926-6.235 13.926-13.926v0-13.926c0-7.691-6.235-13.926-13.926-13.926v0zM602.624 573.542h-223.13c-7.691 0-13.926 6.235-13.926 13.926v0 14.131c0 7.691 6.235 13.926 13.926 13.926v0h223.13c7.691 0 13.926-6.235 13.926-13.926v0-13.926c0.001-0.061 0.002-0.133 0.002-0.205 0-7.691-6.235-13.926-13.926-13.926-0.001 0-0.001 0-0.002 0v0zM532.48 336.486h-153.6c-7.691 0-13.926 6.235-13.926 13.926v0 13.926c0 7.691 6.235 13.926 13.926 13.926v0h153.6c7.691 0 13.926-6.235 13.926-13.926v0-13.926c0-7.691-6.235-13.926-13.926-13.926v0zM505.037 210.944h-125.542c-7.691 0-13.926 6.235-13.926 13.926v0 13.926c0 7.691 6.235 13.926 13.926 13.926v0h125.542c7.691 0 13.926-6.235 13.926-13.926v0-13.926c0-7.691-6.235-13.926-13.926-13.926v0zM338.842 625.050l-51.2-57.754c-2.357-2.67-5.788-4.346-9.611-4.346-3.039 0-5.831 1.059-8.027 2.829l0.025-0.019-32.256 25.6c-3.044 2.405-4.98 6.096-4.98 10.24 0 7.19 5.828 13.018 13.018 13.018 3.046 0 5.848-1.046 8.066-2.799l-0.027 0.021 22.63-18.33 43.213 49.050c2.38 2.597 5.788 4.219 9.574 4.219 7.165 0 12.974-5.809 12.974-12.974 0-3.379-1.292-6.456-3.408-8.765l0.009 0.010zM338.842 500.941l-51.2-57.754c-2.357-2.67-5.788-4.346-9.611-4.346-3.039 0-5.831 1.059-8.027 2.829l0.025-0.019-32.256 25.805c-3.044 2.405-4.98 6.096-4.98 10.24 0 7.19 5.828 13.018 13.018 13.018 3.046 0 5.848-1.046 8.066-2.799l-0.027 0.021 22.63-18.534 43.213 48.64c2.356 2.645 5.772 4.303 9.574 4.303 7.071 0 12.803-5.732 12.803-12.803 0-3.268-1.224-6.25-3.239-8.512l0.011 0.013zM338.842 382.259l-51.2-57.754c-2.357-2.67-5.788-4.346-9.611-4.346-3.039 0-5.831 1.059-8.027 2.829l0.025-0.019-32.051 25.702c-3.044 2.405-4.98 6.096-4.98 10.24 0 7.19 5.828 13.018 13.018 13.018 3.046 0 5.848-1.046 8.066-2.799l-0.027 0.021 22.426-18.432 43.213 48.64c2.356 2.645 5.772 4.303 9.574 4.303 7.071 0 12.803-5.732 12.803-12.803 0-3.268-1.224-6.25-3.239-8.512l0.011 0.013zM338.842 262.758l-51.2-57.754c-2.357-2.67-5.788-4.346-9.611-4.346-3.039 0-5.831 1.059-8.027 2.829l0.025-0.019-32.051 25.702c-3.044 2.405-4.98 6.096-4.98 10.24 0 7.19 5.828 13.018 13.018 13.018 3.046 0 5.848-1.046 8.066-2.799l-0.027 0.021 22.426-18.432 43.213 48.64c2.356 2.645 5.772 4.303 9.574 4.303 7.071 0 12.803-5.732 12.803-12.803 0-3.268-1.224-6.25-3.239-8.512l0.011 0.013z" />
</font>
</defs>
</svg>
